<svg width="264" height="149" viewBox="0 0 264 149" fill="none" xmlns="http://www.w3.org/2000/svg">
<path d="M112.836 49.2657C112.836 49.2657 107.652 52.8627 98.6496 67.0612C98.3315 67.5642 97.9365 68.024 97.4812 68.4135L70.7765 91.2447C70.7765 91.2447 68.3518 93.0405 68.9552 96.4427C69.0046 96.7078 69.0814 96.9674 69.1746 97.2216L68.7248 107.104C69.416 109.051 82.9494 111.377 96.8613 105.654C115.069 98.1574 136.342 89.2164 130.621 80.3565L113.84 62.826L129.891 79.4369C132.255 81.8872 132.08 85.7925 129.485 88.0102C119.962 96.1615 92.0448 111.593 74.3861 108.737C65.0274 107.223 57.2541 99.9099 52.2675 96.4157C51.0881 95.5881 50.0129 94.6253 49.0309 93.5652C36.6605 80.2699 17.6139 81.779 12.5725 81.9197C11.5576 81.9467 10.5867 82.2929 9.7638 82.8987C5.23255 86.2414 -6.93488 96.8268 5.29838 106.709C6.51073 107.688 8.04125 108.142 9.57727 108.023C13.7794 107.704 24.4766 109.316 38.3611 129.308C38.7012 129.794 39.1071 130.233 39.5734 130.6L64.5337 156.19C64.3582 156.05 64.7092 156.331 64.5337 156.19C84.1727 172.017 116.588 190.678 137.966 197.628C138.443 197.785 144.516 208.63 144.982 208.814C137.511 197.769 147.495 209.804 144.982 208.814C145.41 209.447 156.283 218.783 156.706 219.464C166.015 234.442 159.92 235.497 159.92 235.497L167.606 243.496C167.606 243.496 170.749 239.164 172.565 240.029L186.597 246.693C188.572 247.629 190.909 247.434 192.698 246.185L260.88 198.445C263.14 196.86 264.013 193.961 262.992 191.419L228.959 106.595C227.532 103.042 225.486 99.7476 222.836 96.9512C206.67 79.8697 198.277 55.7997 196.966 51.835C196.839 51.4509 196.675 51.0777 196.466 50.7261C185.083 31.0699 173.519 28.333 170.787 27.9543C170.305 27.8894 169.827 27.7542 169.372 27.5811L110.894 4.85803C110.581 4.73362 110.279 4.58216 109.989 4.41449C97.6513 -2.9309 86.2847 1.14748 83.8984 2.14273C83.5528 2.28877 83.1963 2.39695 82.8342 2.47808L16.4729 16.6496C13.4228 17.2987 11.3492 20.1438 11.7716 23.1944C12.4244 27.9057 16.6704 34.3531 33.4897 37.8473C33.4897 37.8473 40.72 39.8541 53.4579 37.0576C54.6483 36.798 55.8936 36.8846 57.0291 37.3335C60.8527 38.8426 71.3744 41.7743 87.5958 36.9278" fill="url(#paint0_linear_3154_16880)"/>
<path d="M11.8809 21.004C11.8809 21.004 14.3604 18.0453 18.5406 18.0453L81.9012 6.51339C82.8666 6.33489 83.8157 6.08068 84.7373 5.74532C88.1769 4.47962 98.534 1.47763 106.466 7.56273C107.245 8.16313 108.112 8.65534 109.028 9.02856C109.253 9.12051 109.462 9.19624 109.621 9.2341L164.835 29.6043C166.316 30.1506 167.83 30.5941 169.377 30.897C174.232 31.849 187.958 35.3054 197.569 53.5985C197.569 53.5985 191.874 37.404 178.034 30.6266C178.034 30.6266 174.797 28.2683 169.366 27.5597L110.888 4.8366C110.888 4.8366 97.0748 -4.22342 82.8283 2.45666C67.6272 9.58027 82.5266 2.67301 82.0987 2.67301C81.6708 2.67301 18.1731 16.2658 18.1731 16.2658C18.1731 16.2658 13.1152 16.5579 11.8864 21.004H11.8809Z" fill="#B772A3"/>
<path d="M14.8164 29.7878C14.8164 29.7878 29.222 43.002 53.4472 37.0413C53.4472 37.0413 72.9655 43.0236 87.5851 36.9115C87.5851 36.9115 102.923 50.3041 112.831 49.2656L114.224 47.0262C114.224 47.0262 88.5835 47.0262 85.8516 22.3613C85.8516 22.3613 88.013 49.1628 52.7669 33.8121C52.7669 33.8121 38.8879 42.6071 14.8164 29.7878Z" fill="#B772A3"/>
<path d="M52.3875 28.041C52.3875 28.041 50.451 33.6285 51.976 35.4729L55.4046 35.8732C55.4046 35.8732 52.2229 33.926 52.393 28.041H52.3875Z" fill="#B772A3"/>
<path d="M114.229 47.0269L112.836 49.2662C112.836 49.2662 102.33 58.4885 98.1777 67.7L70.7763 91.2452C70.7763 91.2452 68.0882 93.16 69.1744 97.2222L68.7246 107.104C68.7246 107.104 73.4972 106.369 79.5809 109.079L80.3434 104.849C80.3434 104.849 75.7299 108.219 72.9816 104.573C72.6908 104.184 72.5921 103.686 72.6853 103.21L74.0458 96.1836C74.3749 94.4852 75.0332 92.8517 76.0426 91.4346C76.5583 90.7152 77.1507 90.0445 77.7651 89.7037C82.8998 86.8315 94.1292 79.8702 101.831 70.1665C101.831 70.1665 103.164 65.1037 106.017 62.291C106.017 62.291 107.136 60.7927 108.381 62.6642L114.235 47.0215L114.229 47.0269Z" fill="#B772A3"/>
<path d="M114.228 47.0264C114.228 47.0264 109.911 55.962 118.463 62.7124C118.463 62.7124 115.66 70.8475 125.539 78.7067C126.083 79.134 128.337 79.94 127.822 80.3997L99.4766 103.999C97.8089 105.508 96.2784 107.153 94.7314 108.786C93.5026 110.09 88.5818 110.885 79.5742 109.078C79.5742 109.078 89.6516 109.078 93.6452 105.681L119.335 81.8061C120.465 80.7567 120.608 79.0313 119.653 77.8197C117.558 75.1639 114.491 70.1551 115.402 64.4433C115.402 64.4433 107.848 57.9146 114.222 47.0264H114.228Z" fill="#B772A3"/>
<path d="M112.836 46.956C112.836 46.956 113.044 41.9148 119.891 38.042C119.891 38.042 113.088 45.4847 113.198 53.6036" fill="#B772A3"/>
<path d="M79.582 106.223C79.582 106.223 83.3014 112.281 91.5465 107.072L98.4805 101.506C98.4805 101.506 99.9836 99.3533 86.2198 99.2721C86.2198 99.2721 93.3678 97.2005 98.5299 97.8117C98.5299 97.8117 104.69 98.7907 109.704 89.4602C109.704 89.4602 110.818 88.6327 109.704 81.747C109.704 81.747 106.007 75.808 109.704 66.8291C109.704 66.8291 109.205 77.6633 112.272 80.7085C112.272 80.7085 115.799 87.7348 114.493 88.8815C113.193 90.0282 93.8835 107.066 93.8835 107.066C93.8835 107.066 89.7033 109.614 87.2457 109.852C87.2457 109.852 81.6282 111.096 79.5875 106.217L79.582 106.223Z" fill="#B772A3"/>
<path d="M113.56 55.167C113.56 55.167 110.976 76.5108 115.557 86.5553L119.984 81.1138C119.984 81.1138 121.471 80.0969 118.201 74.8502C118.201 74.8502 115.683 68.0674 116.478 64.438C116.478 64.438 113.286 57.9093 113.56 55.167Z" fill="#B772A3"/>
<path d="M11.5781 81.9794C11.5781 81.9794 29.3081 78.7718 43.2968 88.6703C43.2968 88.6703 46.1549 89.6114 48.7277 93.2463C48.7277 93.2463 51.3664 96.205 53.1163 97.0217C53.1163 97.0217 65.8818 106.114 68.7289 107.104C68.7289 107.104 74.072 106.228 79.5852 109.078C79.5852 109.078 93.1789 110.885 94.4516 108.954C94.5723 108.77 94.8192 107.997 94.9837 107.845L125.605 80.3945L97.1835 111.502C97.1835 111.502 90.1836 115.65 80.1886 113.173C79.821 113.081 79.47 112.962 79.1189 112.821C77.9394 112.345 74.6425 111.145 70.7641 110.901C68.9702 110.788 67.2367 110.22 65.7281 109.257L49.8194 99.1312C49.8194 99.1312 48.1956 98.1143 46.5609 96.681C46.4018 96.5403 46.2646 96.3835 46.1494 96.2104C45.7654 95.6533 44.7012 94.274 43.0445 93.2408C42.4849 92.8893 41.9638 92.489 41.5085 92.013C39.2812 89.6872 30.9758 82.6609 11.5891 81.974L11.5781 81.9794Z" fill="#B772A3"/>
<path d="M5.53408 90.2879C3.51532 94.5069 0.382947 96.9734 4.3711 103.789C4.85933 104.622 6.37341 106.369 7.26211 106.737C7.26211 106.737 11.5849 105.741 16.3575 107.721C17.334 108.127 19.638 109.079 21.9201 107.337C21.9201 107.337 23.862 105.85 23.4012 103.232C23.4012 103.232 24.2022 88.027 15.5237 86.334C15.2329 86.2799 14.9641 86.1555 14.6679 86.1176L12.49 85.6416C9.19308 85.2414 6.83421 87.5726 5.53408 90.2879Z" fill="#CD7E91"/>
<path d="M21.7781 111.929C26.4575 115.093 25.7718 102.198 25.7718 102.198C25.2726 94.7172 20.3683 89.6328 20.3683 89.6328C24.3071 94.8957 23.199 105.167 23.199 105.167C21.9866 110.073 16.3527 107.726 16.3527 107.726C12.1452 105.465 5.62804 106.914 5.5293 106.887C6.69228 108.067 9.02922 108.099 9.02922 108.099C9.02922 108.099 15.0746 107.396 21.7727 111.929H21.7781Z" fill="#B772A3"/>
<path d="M93.0879 112.091C93.0879 112.091 117.703 76.0724 143.985 75.9805C144.325 75.9805 144.66 76.067 145 76.0832C146.344 76.159 150.804 77.2083 156.69 79.5558C156.69 79.5558 125.032 71.0096 93.0879 112.091Z" fill="url(#paint1_linear_3154_16880)"/>
<path d="M91.4746 113.481C91.4746 113.481 99.1601 114.974 98.9736 124.91C98.9736 124.91 102.605 117.597 97.1743 111.507L91.4746 113.481Z" fill="#B772A3"/>
<path d="M25.1676 109.998C25.1676 109.998 40.4399 120.421 44.4171 127.339C44.4171 127.339 61.6863 147.471 68.7301 152.815C68.7301 152.815 105.435 180.417 137.379 190.521C137.379 190.521 148.219 196.444 149.075 201.485L156.694 219.465C156.694 219.465 144.373 206.754 137.955 197.629C137.955 197.629 99.198 184.031 64.5225 156.191L38.3499 129.308C38.3499 129.308 30.4887 117.403 21.7773 111.929L25.1676 109.998Z" fill="#B772A3"/>
<path d="M108.854 135.377L193.57 189.369L212.842 211.308L187.245 192.182L108.854 135.377Z" fill="url(#paint2_linear_3154_16880)"/>
<path d="M40.9727 127.501C40.9727 127.501 44.1105 121.281 49.2452 118.203C49.2452 118.203 42.9695 126.095 45.1089 130.308L40.9727 127.496V127.501Z" fill="url(#paint3_linear_3154_16880)"/>
<path d="M64.5234 151.69C64.5234 151.69 69.4935 142.69 75.1987 137.346C75.1987 137.346 67.6065 151.485 68.7256 155.904L64.5234 151.685V151.69Z" fill="url(#paint4_linear_3154_16880)"/>
<defs>
<linearGradient id="paint0_linear_3154_16880" x1="4.03975" y1="137.283" x2="255.092" y2="111.645" gradientUnits="userSpaceOnUse">
<stop stop-color="#D39984"/>
<stop offset="1" stop-color="#B772A3"/>
</linearGradient>
<linearGradient id="paint1_linear_3154_16880" x1="93.0879" y1="94.0356" x2="156.69" y2="94.0356" gradientUnits="userSpaceOnUse">
<stop stop-color="#B772A3"/>
<stop offset="0.78" stop-color="#BB789E"/>
<stop offset="0.92" stop-color="#B975A1"/>
</linearGradient>
<linearGradient id="paint2_linear_3154_16880" x1="108.854" y1="173.343" x2="212.842" y2="173.343" gradientUnits="userSpaceOnUse">
<stop stop-color="#B772A3"/>
<stop offset="0.78" stop-color="#BB789E"/>
<stop offset="0.92" stop-color="#B975A1"/>
</linearGradient>
<linearGradient id="paint3_linear_3154_16880" x1="40.9727" y1="124.261" x2="49.2452" y2="124.261" gradientUnits="userSpaceOnUse">
<stop stop-color="#B772A3"/>
<stop offset="0.78" stop-color="#BB789E"/>
<stop offset="0.92" stop-color="#B975A1"/>
</linearGradient>
<linearGradient id="paint4_linear_3154_16880" x1="64.5234" y1="146.627" x2="75.1987" y2="146.627" gradientUnits="userSpaceOnUse">
<stop stop-color="#B772A3"/>
<stop offset="0.78" stop-color="#BB789E"/>
<stop offset="0.92" stop-color="#B975A1"/>
</linearGradient>
</defs>
</svg>
