<svg width="127" height="33" viewBox="0 0 127 33" fill="none" xmlns="http://www.w3.org/2000/svg">
<path d="M6.98934 17.9167H9.1823C9.72824 17.9167 10.1713 17.4922 10.1713 16.9692V8.20607C10.1713 7.99003 10.3546 7.81441 10.5808 7.81441C10.6915 7.81441 10.7931 7.85673 10.8663 7.92559L21.0049 17.6394C21.3913 18.0096 22.0177 18.0096 22.4034 17.6394L23.9541 16.1536C24.3405 15.7834 24.3405 15.1833 23.9541 14.8138L20.7774 11.7702C20.6996 11.6982 20.6515 11.5977 20.6515 11.4865C20.6515 11.2743 20.8276 11.1006 21.0471 11.0943C21.0517 11.0943 21.0702 11.0943 21.0748 11.0943H23.2533C23.7992 11.0943 24.2423 10.6697 24.2423 10.1467V1.38485C24.2423 0.861797 23.7992 0.437287 23.2533 0.437287H21.0603C20.5144 0.437287 20.0713 0.861797 20.0713 1.38485V10.1202C20.0726 10.129 20.0726 10.1378 20.0726 10.1467C20.0726 10.1555 20.0726 10.1644 20.0713 10.1732C20.0574 10.3779 19.8801 10.5396 19.6625 10.5396C19.557 10.5396 19.4601 10.5004 19.3876 10.4373L9.23901 0.714608C8.85263 0.344426 8.22626 0.344426 7.84055 0.714608L6.28978 2.20039C5.90341 2.57058 5.90341 3.1707 6.28978 3.54025L9.47307 6.59015L9.47637 6.59394C9.5456 6.66217 9.59109 6.75629 9.59307 6.85989C9.59769 7.07973 9.39527 7.25977 9.16582 7.25977H6.98934C6.44341 7.25977 6.00033 7.68428 6.00033 8.20733V16.9692C6.00033 17.4922 6.44341 17.9167 6.98934 17.9167Z" fill="url(#paint0_linear_647_52100)"/>
<path d="M54.6347 17.3883C54.7149 17.6991 55.0073 17.9171 55.3427 17.9171H61.5794C61.9148 17.9171 62.2065 17.6997 62.2873 17.3896L67.1765 1.14262C67.2699 0.783793 66.9849 0.436971 66.5972 0.436971H63.3631C63.0827 0.436971 62.8408 0.622701 62.7805 0.882975L59.0791 14.0382C59.0162 14.3105 58.763 14.5044 58.47 14.5044C58.3242 14.5044 58.1876 14.4558 58.0796 14.3737C57.9722 14.2909 57.8933 14.1747 57.8615 14.0382L54.1601 0.883607C54.0998 0.622701 53.8579 0.437603 53.5775 0.437603H50.3481C49.961 0.437603 49.676 0.783793 49.7688 1.14199L54.6347 17.3883Z" fill="url(#paint1_linear_647_52100)"/>
<path d="M80.1563 14.4697H74.1735C73.8746 14.4697 73.6148 14.6657 73.5453 14.9432L72.6354 17.4975C72.5653 17.775 72.3054 17.971 72.0071 17.971H68.985C68.5591 17.971 68.2503 17.5847 68.3607 17.1921L73.6286 0.893453C73.7047 0.624116 73.9606 0.436971 74.2529 0.436971H80.2344C80.5266 0.436971 80.7826 0.624748 80.8586 0.894717L86.102 17.1934C86.2125 17.586 85.903 17.9717 85.4778 17.9717H82.3055C82.0053 17.9717 81.7441 17.7738 81.676 17.4937L80.7865 14.9483C80.7184 14.6688 80.4565 14.4697 80.1563 14.4697ZM79.4342 10.864L77.7948 4.76216C77.726 4.48334 77.4655 4.28608 77.1659 4.28608C76.867 4.28608 76.6071 4.48208 76.537 4.76027L74.8739 10.864H79.4342Z" fill="url(#paint2_linear_647_52100)"/>
<path d="M87.5934 4.4912H92.3316V17.2492C92.3316 17.6333 92.6561 17.9442 93.057 17.9442H95.7775C96.1778 17.9442 96.5029 17.6333 96.5029 17.2492V4.49183H101.241C101.642 4.49183 101.966 4.18098 101.966 3.79685V1.15907C101.966 0.775569 101.642 0.464091 101.241 0.464091H87.5934C87.1925 0.464091 86.868 0.775569 86.868 1.15907V3.79685C86.868 4.18098 87.1925 4.4912 87.5934 4.4912Z" fill="url(#paint3_linear_647_52100)"/>
<path d="M41.0715 18.0895L47.1867 12.2488V12.2476C47.5556 11.8965 47.5556 11.3268 47.1874 10.9758L45.5805 9.44097C45.5732 9.434 45.5659 9.42703 45.5592 9.41943C45.5015 9.35099 45.471 9.26671 45.4683 9.18243C45.4683 9.17989 45.4683 9.17736 45.4683 9.17482C45.4683 9.17229 45.4683 9.16975 45.4683 9.16722C45.471 9.08294 45.5015 8.99866 45.5592 8.93022C45.5659 8.92262 45.5725 8.91565 45.5798 8.90868L47.1867 7.37389C47.5543 7.02282 47.5543 6.45314 47.1867 6.10208L41.0755 0.265198V0.26393C40.7066 -0.0871318 40.1108 -0.0871318 39.7426 0.26393L38.1357 1.79872C38.1284 1.80569 38.1211 1.81203 38.1131 1.81836C38.0415 1.87349 37.9532 1.90264 37.865 1.90518C37.8624 1.90518 37.8597 1.90518 37.857 1.90518C37.8544 1.90518 37.8517 1.90518 37.8491 1.90518C37.7608 1.90264 37.6726 1.87349 37.6009 1.81836C37.593 1.81203 37.5857 1.80569 37.5784 1.79808L35.9715 0.263297C35.6039 -0.0877655 35.0075 -0.0877655 34.6399 0.263297L28.524 6.10461V6.10588C28.1552 6.45694 28.1552 7.02663 28.5234 7.37769L30.1303 8.91248C30.1376 8.91945 30.1449 8.92642 30.1515 8.93402C30.2086 9.00246 30.2398 9.08674 30.2424 9.17102C30.2424 9.17356 30.2424 9.17609 30.2424 9.17863C30.2424 9.18116 30.2424 9.18369 30.2424 9.18623C30.2398 9.27051 30.2093 9.35479 30.1515 9.42323C30.1449 9.43083 30.1383 9.4378 30.131 9.44477L28.524 10.9796C28.1565 11.3306 28.1565 11.9003 28.524 12.2514V12.2526L34.6352 18.0889V18.0902C35.0041 18.4412 35.5999 18.4412 35.9681 18.0902L37.5751 16.5554C37.5824 16.5484 37.5897 16.5421 37.5976 16.5357C37.6693 16.4812 37.7575 16.4514 37.8458 16.4489C37.8484 16.4489 37.8511 16.4489 37.8537 16.4489C37.8564 16.4489 37.859 16.4489 37.8617 16.4489C37.9499 16.4514 38.0382 16.4806 38.1098 16.5357C38.1178 16.5421 38.1251 16.5484 38.1324 16.556L39.7393 18.0908C40.1069 18.4419 40.7033 18.4419 41.0709 18.0908L41.0715 18.0895ZM38.0747 15.1346H38.0733V15.1334C38.0017 15.2018 37.9081 15.236 37.8146 15.236C37.721 15.236 37.6275 15.2018 37.5558 15.1334V15.1346L37.5545 15.1334L31.4738 9.38964C31.4738 9.38964 31.4738 9.38838 31.4732 9.38838H31.4745C31.4028 9.31994 31.3677 9.23059 31.367 9.14124C31.367 9.05189 31.4028 8.96254 31.4745 8.8941H31.4732C31.4732 8.8941 31.4738 8.89283 31.4745 8.89283L37.5591 3.14403H37.5605V3.1453C37.6321 3.07686 37.7257 3.04264 37.8192 3.04264C37.9128 3.04264 38.0063 3.07686 38.078 3.1453V3.14403L38.0793 3.1453L44.16 8.88903L44.1606 8.8903H44.1593C44.231 8.95874 44.2661 9.04809 44.2668 9.13743C44.2668 9.22678 44.231 9.31613 44.1593 9.38457H44.1606L44.1593 9.38584L38.0747 15.1346Z" fill="url(#paint4_linear_647_52100)"/>
<path d="M120.152 13.416H117.87C117.755 13.3861 117.662 13.3 117.601 13.1988C117.555 13.1239 117.529 13.0469 117.514 12.9644V10.874C117.514 10.8644 117.514 10.8543 117.515 10.8446C117.524 10.7576 117.563 10.6776 117.621 10.6163L117.627 10.6107C117.628 10.6087 117.63 10.6072 117.633 10.6052C117.694 10.5475 117.774 10.5085 117.862 10.4994C117.871 10.4984 117.881 10.4978 117.891 10.4978H120.063C120.56 10.4978 120.963 10.0959 120.963 9.60074V4.75522L120.964 4.75421C120.963 4.25807 120.561 3.8566 120.063 3.85609H117.891C117.881 3.85609 117.872 3.85559 117.862 3.85458C117.775 3.84496 117.694 3.80647 117.633 3.74876L117.628 3.7437C117.626 3.74167 117.624 3.74016 117.622 3.73813C117.564 3.67687 117.525 3.59688 117.516 3.5098C117.515 3.50018 117.515 3.49057 117.515 3.48044V1.31563C117.515 0.820498 117.112 0.418521 116.615 0.418521H108.506C108.486 0.417509 108.467 0.415484 108.446 0.415484H106.335C105.819 0.415484 105.401 0.832144 105.401 1.34651V3.89153L105.391 4.37907H105.401V16.9761C105.401 17.4904 105.819 17.9071 106.335 17.9071H108.446C108.962 17.9071 109.38 17.4904 109.38 16.9761V13.9359H116.313C116.398 13.9546 116.481 13.9769 116.56 14.0093C116.667 14.0524 116.771 14.1156 116.856 14.1936C116.938 14.2685 116.973 14.4103 116.994 14.5166C117.005 14.5728 117.011 14.7298 117.021 14.872V17.0758C117.021 17.5426 117.4 17.9208 117.869 17.9208H120.152C120.621 17.9208 121 17.5426 121 17.0758V14.2609C121 13.7947 120.62 13.416 120.152 13.416ZM109.38 4.39273L116.549 4.41704L116.55 4.41805L116.549 4.41906C116.646 4.41906 116.733 4.45804 116.796 4.52082C116.86 4.58411 116.899 4.67118 116.899 4.76737L116.9 4.76636V4.76839L116.945 9.52732L116.944 9.52884L116.943 9.52783C116.943 9.62453 116.904 9.7111 116.841 9.77438C116.778 9.83716 116.69 9.87614 116.593 9.87614L116.594 9.87716H116.592L109.379 9.86653V4.39273H109.38Z" fill="url(#paint5_linear_647_52100)"/>
<path d="M30.5357 30.536C29.737 30.536 29.0624 30.1082 28.7057 29.3672V32.3541H28V25.2114H28.6514V26.342C29.0159 25.5705 29.7215 25.1121 30.5357 25.1121C31.9471 25.1121 32.8621 26.2198 32.8621 27.8164C32.8621 29.413 31.9471 30.536 30.5357 30.536ZM30.4117 25.7156C29.4268 25.7156 28.6902 26.4872 28.6902 27.8164C28.6902 29.1456 29.4036 29.9325 30.4117 29.9325C31.4198 29.9325 32.1409 29.1609 32.1409 27.8164C32.1409 26.4719 31.443 25.7156 30.4117 25.7156Z" fill="#53389E"/>
<path d="M34.6997 30.4363H33.9941V25.211H34.6454V26.4028C35.0099 25.6312 35.7931 25.1346 36.6694 25.1346V25.8604C35.5527 25.8222 34.692 26.5021 34.692 27.648V30.4439L34.6997 30.4363Z" fill="#53389E"/>
<path d="M37.1425 27.7782C37.1425 26.2504 38.1661 25.1121 39.5774 25.1121C41.0895 25.1121 42.0744 26.3115 41.9503 27.9921H37.8404C37.9024 29.2297 38.5616 29.9936 39.6007 29.9936C40.4847 29.9936 41.0973 29.5047 41.2756 28.672H41.9735C41.7332 29.8332 40.8336 30.536 39.6162 30.536C38.1273 30.536 37.1425 29.4359 37.1425 27.7782ZM37.8481 27.5108H41.2214C41.1593 26.342 40.5467 25.6469 39.5696 25.6469C38.5926 25.6469 37.9412 26.3726 37.8481 27.5108Z" fill="#53389E"/>
<path d="M45.0057 30.4366H44.269L42.245 25.2114H42.9972L44.6567 29.6269L46.3162 25.2114H47.0373L44.9901 30.4366H45.0057Z" fill="#53389E"/>
<path d="M48.2083 24.5235C47.8749 24.5235 47.6422 24.302 47.6422 23.9964C47.6422 23.6908 47.8749 23.4769 48.2083 23.4769C48.5417 23.4769 48.7821 23.6985 48.7821 23.9964C48.7821 24.2943 48.5495 24.5235 48.2083 24.5235ZM47.8671 30.4363V25.211H48.5728V30.4363H47.8671Z" fill="#53389E"/>
<path d="M49.7126 27.8163C49.7126 26.2502 50.7672 25.1196 52.2328 25.1196C53.6984 25.1196 54.7608 26.2502 54.7608 27.8163C54.7608 29.3823 53.7062 30.5358 52.2328 30.5358C50.7595 30.5358 49.7126 29.3976 49.7126 27.8163ZM54.0396 27.8163C54.0396 26.5405 53.2642 25.7231 52.2251 25.7231C51.186 25.7231 50.426 26.5329 50.426 27.8163C50.426 29.0997 51.2015 29.9323 52.2251 29.9323C53.2487 29.9323 54.0396 29.1226 54.0396 27.8163Z" fill="#53389E"/>
<path d="M59.2894 25.2114H59.9873V30.4366H59.3359V29.497C59.0645 30.1005 58.4209 30.5359 57.6454 30.5359C56.5675 30.5359 55.8541 29.9324 55.8541 28.6109V25.2114H56.5598V28.4657C56.5598 29.5276 57.0948 29.9324 57.8393 29.9324C58.6845 29.9324 59.2971 29.2602 59.2971 28.3282V25.2114H59.2894Z" fill="#53389E"/>
<path d="M63.3841 30.536C62.0658 30.536 61.2594 29.879 61.1586 28.8019H61.8332C61.8875 29.5429 62.4768 30.0089 63.3841 30.0089C64.2914 30.0089 64.7722 29.6804 64.7722 29.0845C64.7722 28.5651 64.4697 28.3282 63.6633 28.1755L62.8956 28.0303C61.8875 27.8393 61.3524 27.3581 61.3524 26.6018C61.3524 25.7309 62.1356 25.1121 63.2988 25.1121C64.5163 25.1121 65.3227 25.7538 65.4003 26.8004H64.7334C64.6636 26.0747 64.1285 25.6469 63.291 25.6469C62.5466 25.6469 62.0348 25.9906 62.0348 26.5407C62.0348 27.0601 62.3605 27.3046 63.1437 27.4497L63.9424 27.5949C64.997 27.7935 65.4701 28.2289 65.4701 28.9776C65.4701 29.9401 64.6869 30.536 63.3764 30.536H63.3841Z" fill="#53389E"/>
<path d="M66.7106 30.4362V23.3164H67.4162V30.4362H66.7106Z" fill="#53389E"/>
<path d="M70.3165 32.3541H69.5643L70.3397 30.3679L68.2383 25.2114H68.9905L70.7042 29.5352L72.3249 25.2114H73.0383L70.3165 32.3541Z" fill="#53389E"/>
<path d="M75.5739 27.5794C75.5739 25.9446 76.8922 24.6153 78.6059 24.6153C80.3197 24.6153 81.638 25.9446 81.638 27.5794C81.638 29.2142 80.3197 30.5434 78.6059 30.5434C76.8922 30.5434 75.5739 29.2142 75.5739 27.5794ZM79.7148 27.5794C79.7148 26.6856 79.172 26.2501 78.6059 26.2501C78.0399 26.2501 77.4971 26.6856 77.4971 27.5794C77.4971 28.4732 78.0399 28.9162 78.6059 28.9162C79.172 28.9162 79.7148 28.4732 79.7148 27.5794Z" fill="#53389E"/>
<path d="M84.3211 30.4364H82.4755V24.7223H84.166V25.4098C84.6157 24.9133 85.1586 24.6153 85.8875 24.6153C87.0274 24.6153 87.8416 25.3716 87.8416 26.762V30.4364H85.996V27.3655C85.996 26.6397 85.7401 26.2501 85.1741 26.2501C84.7243 26.2501 84.3133 26.571 84.3133 27.4266V30.4288L84.3211 30.4364Z" fill="#53389E"/>
<path d="M88.6326 27.5716C88.6326 25.8604 89.8811 24.6228 91.6103 24.6228C93.5257 24.6228 94.8129 26.166 94.4795 28.0452H90.5479C90.641 28.7709 90.99 29.13 91.5793 29.13C92.0988 29.13 92.4401 28.9161 92.6029 28.5036H94.4484C94.0917 29.8099 93.0682 30.5433 91.6258 30.5433C89.8345 30.5433 88.6403 29.3515 88.6403 27.5792L88.6326 27.5716ZM90.5635 26.8993H92.5021C92.4788 26.3264 92.1143 25.9521 91.5638 25.9521C91.0132 25.9521 90.6875 26.2576 90.5635 26.8993Z" fill="#53389E"/>
<path d="M96.2785 24.4244C95.5806 24.4244 95.0921 23.9889 95.0921 23.3931C95.0921 22.7972 95.5806 22.3541 96.2785 22.3541C96.9764 22.3541 97.465 22.7896 97.465 23.3931C97.465 23.9966 96.9764 24.4244 96.2785 24.4244ZM95.3712 30.4364V24.7223H97.2168V30.4364H95.3712Z" fill="#53389E"/>
<path d="M100.877 30.5433C99.1323 30.5433 98.1863 29.7335 98.0622 28.4195H99.8302C99.8302 28.9008 100.272 29.2064 100.908 29.2064C101.327 29.2064 101.707 29.1071 101.707 28.8168C101.707 28.5647 101.513 28.4577 101.118 28.3813L99.9776 28.1827C98.9617 27.9994 98.3181 27.4264 98.3181 26.5021C98.3181 25.3944 99.2642 24.6228 100.784 24.6228C102.304 24.6228 103.359 25.4173 103.467 26.6931H101.699C101.653 26.2347 101.304 25.9597 100.792 25.9597C100.358 25.9597 100.078 26.0743 100.078 26.334C100.078 26.5938 100.265 26.6549 100.629 26.716L101.854 26.9375C102.979 27.1361 103.568 27.6785 103.568 28.4959C103.568 29.7564 102.622 30.5433 100.869 30.5433H100.877Z" fill="#53389E"/>
<path d="M108.197 30.2381C107.786 30.4596 107.399 30.5437 106.879 30.5437C105.576 30.5437 104.809 29.7798 104.809 28.4735V26.3039H103.731V24.7226H104.809V23.042H106.654V24.7226H108.236V26.3039H106.654V28.0456C106.654 28.5957 106.895 28.8554 107.399 28.8554C107.701 28.8554 107.988 28.779 108.197 28.6568V30.2381Z" fill="#53389E"/>
<path d="M108.585 27.5794C108.585 25.9446 109.903 24.6153 111.617 24.6153C113.331 24.6153 114.649 25.9446 114.649 27.5794C114.649 29.2142 113.331 30.5434 111.617 30.5434C109.903 30.5434 108.585 29.2142 108.585 27.5794ZM112.726 27.5794C112.726 26.6856 112.183 26.2501 111.617 26.2501C111.051 26.2501 110.508 26.6856 110.508 27.5794C110.508 28.4732 111.051 28.9162 111.617 28.9162C112.183 28.9162 112.726 28.4732 112.726 27.5794Z" fill="#53389E"/>
<path d="M114.688 30.4366L116.564 27.5413L114.82 24.73H116.968L117.937 26.5482L118.906 24.73H120.86L119.147 27.6177L121 30.4442H118.899L117.813 28.5726L116.766 30.4442H114.696L114.688 30.4366Z" fill="#53389E"/>
<defs>
<linearGradient id="paint0_linear_647_52100" x1="6" y1="9.78884" x2="121" y2="9.78884" gradientUnits="userSpaceOnUse">
<stop stop-color="#7860FC"/>
<stop offset="0.5" stop-color="#21B7DE"/>
<stop offset="1" stop-color="#7FEB8C"/>
</linearGradient>
<linearGradient id="paint1_linear_647_52100" x1="6" y1="9.78884" x2="121" y2="9.78884" gradientUnits="userSpaceOnUse">
<stop stop-color="#7860FC"/>
<stop offset="0.5" stop-color="#21B7DE"/>
<stop offset="1" stop-color="#7FEB8C"/>
</linearGradient>
<linearGradient id="paint2_linear_647_52100" x1="6" y1="9.78884" x2="121" y2="9.78884" gradientUnits="userSpaceOnUse">
<stop stop-color="#7860FC"/>
<stop offset="0.5" stop-color="#21B7DE"/>
<stop offset="1" stop-color="#7FEB8C"/>
</linearGradient>
<linearGradient id="paint3_linear_647_52100" x1="6" y1="9.78884" x2="121" y2="9.78884" gradientUnits="userSpaceOnUse">
<stop stop-color="#7860FC"/>
<stop offset="0.5" stop-color="#21B7DE"/>
<stop offset="1" stop-color="#7FEB8C"/>
</linearGradient>
<linearGradient id="paint4_linear_647_52100" x1="6" y1="9.78884" x2="121" y2="9.78884" gradientUnits="userSpaceOnUse">
<stop stop-color="#7860FC"/>
<stop offset="0.5" stop-color="#21B7DE"/>
<stop offset="1" stop-color="#7FEB8C"/>
</linearGradient>
<linearGradient id="paint5_linear_647_52100" x1="6" y1="9.78884" x2="121" y2="9.78884" gradientUnits="userSpaceOnUse">
<stop stop-color="#7860FC"/>
<stop offset="0.5" stop-color="#21B7DE"/>
<stop offset="1" stop-color="#7FEB8C"/>
</linearGradient>
</defs>
</svg>
