<svg width="56" height="14" viewBox="0 0 56 14" fill="none" xmlns="http://www.w3.org/2000/svg">
<path d="M9.01685 13.0338H11.8912L9.09963 0.966797H5.8255L0.140137 13.0338H3.18045L4.16605 10.6824H8.51715L9.01685 13.0338ZM5.28067 8.02262L7.03446 3.83769H7.06206L7.95182 8.02262H5.28067Z" fill="white"/>
<path d="M20.8066 10.2259H12.3125L11.8911 13.0338H20.3845L20.8066 10.2259ZM21.775 3.77401H13.2813L13.7031 0.966797H22.1968L21.775 3.77401ZM20.0604 8.4039H12.5858L13.008 5.59671H20.4825L20.0604 8.4039Z" fill="white"/>
<path d="M30.1666 9.93986C29.3563 10.3133 28.1466 10.3744 27.5536 10.3744C25.6414 10.3744 24.3753 9.0719 24.4395 7.136C24.5078 5.09175 26.0553 3.62614 28.157 3.62614C29.1508 3.62614 30.0253 3.95382 30.8099 4.61587L31.3916 1.72675C30.1912 1.02075 29.184 0.731445 27.9262 0.731445C24.4466 0.731445 21.5752 3.62615 21.454 7.26298C21.3369 10.7903 23.6333 13.2695 27.0443 13.2695C27.6372 13.2695 28.9204 13.2076 29.7296 12.8346L30.1666 9.93986Z" fill="white"/>
<path d="M37.39 0.760358C40.6219 0.98973 42.6215 3.61673 42.2609 7.12845C41.8876 10.7478 38.9629 13.4422 35.6645 13.2072C32.4318 12.9778 30.4326 10.3508 30.794 6.83913C31.1661 3.22017 34.0908 0.525402 37.39 0.760358ZM39.3854 7.42186C39.8247 5.38171 39.0639 3.79248 37.5197 3.4782C35.8226 3.13042 34.2792 4.42847 33.8138 6.58443C33.3734 8.62495 34.1341 10.2138 35.6783 10.5296C37.3769 10.8751 38.92 9.57783 39.3854 7.42186Z" fill="white"/>
<path d="M55.6811 13.0336L55.4596 0.96582H52.7348L49.2466 7.7729L47.8385 0.96582H45.1166L41.3618 13.0336H44.3656L46.4088 5.96845L47.6927 13.0336H49.2235L52.765 5.97143L52.7228 13.0336H55.6811Z" fill="white"/>
</svg>
