<svg width="60" height="16" viewBox="0 0 60 16" fill="none" xmlns="http://www.w3.org/2000/svg">
<path d="M3.94669 14.8601H0.0390625V1.26353H3.71742C5.60146 1.26353 7.5154 2.47964 7.5154 4.79226C7.56524 5.9087 6.96713 6.96533 5.99023 7.50361L5.80083 7.60329C5.96032 7.6631 6.10985 7.73288 6.26934 7.80266C7.61508 8.46056 8.32284 9.52715 8.32284 10.9028C8.31287 13.644 6.11982 14.8601 3.94669 14.8601ZM0.95616 13.9431H3.94669C4.52486 13.9431 7.40575 13.7935 7.40575 10.8928C7.40575 8.20138 3.6277 8.08176 3.5978 8.08176H3.12928H0.95616V13.9431ZM3.57786 7.16469C6.43881 7.16469 6.58833 5.18102 6.58833 4.79226C6.58833 3.53627 5.69117 2.1806 3.71742 2.1806H0.95616V7.15472C1.61408 7.15472 2.92991 7.15472 3.58783 7.15472M18.3112 2.1806V1.26353H10.9545V14.8701H18.2614V13.953H11.8716V8.41072L18.1119 8.42068V7.50361L11.8716 7.49364V2.19057H18.3112V2.1806ZM32.0378 14.8701V1.26353H31.1207V12.9761L22.0295 1.27349H21.3416V14.8601H22.2587V3.06777L31.4397 14.8701H32.0378ZM58.7532 1.26353L54.5166 7.72291L50.3199 1.26353H49.2234L54.0381 8.66989V14.8701H54.9552V8.7297L59.8498 1.26353H58.7532ZM41.7471 15.1791C37.8195 15.1891 34.6196 12.0092 34.6096 8.08176C34.6096 4.00478 37.7497 0.814958 41.7471 0.814958C45.7145 0.735212 48.9941 3.88516 49.0739 7.84253C49.1536 11.8099 46.0036 15.0894 42.0461 15.1691C41.9464 15.1891 41.8467 15.1891 41.7471 15.1791ZM41.7471 1.75197C38.2581 1.75197 35.5267 4.53309 35.5267 8.1017C35.5566 11.5108 38.3378 14.262 41.7471 14.2521C45.2061 14.4016 48.1269 11.7301 48.2764 8.27116C48.4259 4.8122 45.7544 1.89152 42.2953 1.742C42.1159 1.73203 41.9265 1.73203 41.7471 1.742" fill="white"/>
</svg>
