<svg width="73" height="22" viewBox="0 0 73 22" fill="none" xmlns="http://www.w3.org/2000/svg">
<path d="M56.6792 21.5541C55.945 21.5541 55.2226 21.5541 54.5002 21.5541C54.4067 21.5541 54.3873 21.4985 54.3594 21.4343L52.3846 16.8211L51.5784 14.9381C51.5584 14.8872 51.5276 14.8412 51.4881 14.8033V21.5434H49.9121V12.6914H50.3937C50.942 12.6914 51.4902 12.6914 52.0374 12.6914C52.0825 12.6848 52.1285 12.6949 52.1668 12.7197C52.205 12.7446 52.2327 12.7824 52.2449 12.8262C53.165 14.9838 54.0881 17.1402 55.014 19.2956C55.0364 19.3545 55.0734 19.4068 55.1215 19.4476V12.6978H56.6835L56.6792 21.5541Z" fill="white"/>
<path d="M47.1248 7.21104V0.449555H48.6813V9.2919H46.4142L43.5117 2.52935H43.4859V9.29083H41.9282V0.436717H42.1432C42.7764 0.436717 43.4085 0.436717 44.0417 0.436717C44.0894 0.42967 44.138 0.440107 44.1785 0.466084C44.2191 0.492062 44.2487 0.531812 44.262 0.577937C45.1887 2.75402 46.1186 4.92939 47.0517 7.10405C47.0678 7.14043 47.085 7.17573 47.1011 7.21104H47.1248Z" fill="white"/>
<path d="M2.58299 18.0673V21.5464H0.983398V12.6923H1.14465C2.72131 12.6923 4.30048 12.6923 5.88215 12.6923C6.01678 12.6865 6.15116 12.7087 6.27667 12.7575C6.40217 12.8063 6.51605 12.8807 6.611 12.9758C6.90125 13.2679 7.19795 13.5536 7.4882 13.8467C7.57647 13.9343 7.64569 14.0391 7.69155 14.1545C7.73741 14.2699 7.75894 14.3935 7.7548 14.5175C7.74978 15.0924 7.74978 15.6672 7.7548 16.2421C7.75807 16.3686 7.73513 16.4943 7.68741 16.6116C7.63969 16.7288 7.56822 16.835 7.47745 16.9236C7.1872 17.2157 6.89373 17.5056 6.60025 17.7955C6.51137 17.8857 6.40457 17.9565 6.28666 18.0033C6.16875 18.0501 6.04233 18.0719 5.91548 18.0673H5.64136L8.37507 21.5368C8.33972 21.5452 8.30379 21.551 8.26757 21.5539C7.68385 21.5539 7.1012 21.5539 6.51855 21.5539C6.44343 21.5446 6.37505 21.5062 6.32828 21.4469C5.48906 20.3771 4.65236 19.3055 3.81816 18.232C3.78057 18.1772 3.72927 18.1331 3.66933 18.104C3.60938 18.0749 3.54286 18.0619 3.47631 18.0662C3.18821 18.0726 2.89474 18.0673 2.58299 18.0673ZM2.59052 16.5406H5.22748C5.70371 16.5406 5.708 16.5406 6.03373 16.1972C6.09718 16.1246 6.13495 16.0332 6.14123 15.9372C6.1552 15.6655 6.1466 15.3926 6.1466 15.1209C6.1466 14.6544 6.1466 14.6502 5.80583 14.3324C5.73029 14.2642 5.63354 14.2238 5.53171 14.2179C4.59646 14.2094 3.66014 14.2126 2.72382 14.2179C2.68138 14.2194 2.63904 14.223 2.59697 14.2286L2.59052 16.5406Z" fill="white"/>
<path d="M34.7525 18.0672V21.5453H33.1519V12.6922H33.3056C34.8822 12.6922 36.4614 12.6922 38.0431 12.6922C38.1801 12.6866 38.3168 12.7096 38.4444 12.7597C38.5719 12.8098 38.6875 12.886 38.7838 12.9832C39.0654 13.27 39.3567 13.5481 39.6438 13.8327C39.7367 13.9228 39.8097 14.0311 39.8582 14.1509C39.9067 14.2706 39.9296 14.3991 39.9254 14.5281C39.919 15.0973 39.9179 15.6675 39.9254 16.2399C39.9293 16.3689 39.9061 16.4973 39.8572 16.6169C39.8083 16.7365 39.7349 16.8445 39.6416 16.9342C39.3578 17.2188 39.0708 17.5012 38.787 17.7901C38.6955 17.8853 38.5848 17.9601 38.4621 18.0096C38.3394 18.059 38.2076 18.0819 38.0753 18.0768H37.8109L40.5511 21.5538C40.4844 21.5592 40.4436 21.5645 40.4006 21.5645C39.8383 21.5645 39.275 21.5645 38.7117 21.5645C38.6695 21.5679 38.6271 21.5597 38.5892 21.5409C38.5513 21.522 38.5194 21.4932 38.4967 21.4576C37.6625 20.3877 36.824 19.3178 35.9909 18.2394C35.9521 18.1825 35.8988 18.1368 35.8365 18.1069C35.7742 18.077 35.7051 18.0641 35.6362 18.0693C35.3491 18.0736 35.061 18.0672 34.7525 18.0672ZM34.7611 16.5405H34.9503C35.7673 16.5405 36.5832 16.5405 37.4002 16.5405C37.9732 16.5405 37.7808 16.6143 38.1936 16.2035C38.2591 16.1279 38.297 16.0325 38.3011 15.9328C38.3161 15.6557 38.286 15.3765 38.3118 15.1016C38.3337 14.9603 38.3162 14.8157 38.2612 14.6837C38.2063 14.5516 38.1159 14.4371 38.0001 14.3527C37.9067 14.2652 37.7843 14.215 37.6561 14.2114C36.7456 14.2114 35.834 14.2114 34.9234 14.2114H34.7568L34.7611 16.5405Z" fill="white"/>
<path d="M40.5586 9.30244C40.0007 9.30244 39.4782 9.28533 38.9579 9.30993C38.8378 9.32237 38.7165 9.30098 38.608 9.24821C38.4995 9.19544 38.4081 9.1134 38.3441 9.01144C37.5701 7.99187 36.7746 6.98942 35.9898 5.9784C35.9524 5.92318 35.9012 5.87851 35.8413 5.84871C35.7815 5.81891 35.7149 5.80499 35.648 5.8083C35.3556 5.81579 35.0632 5.8083 34.7568 5.8083V9.29388H33.1519V0.448326C33.2002 0.448326 33.2529 0.440837 33.3056 0.440837C34.8944 0.440837 36.4833 0.440837 38.0721 0.440837C38.2066 0.436928 38.3404 0.461196 38.4648 0.512064C38.5893 0.562933 38.7016 0.639267 38.7945 0.736117C39.0708 1.01428 39.3503 1.2903 39.6298 1.56632C39.7268 1.65899 39.8031 1.77106 39.8535 1.89516C39.9039 2.01926 39.9273 2.15258 39.9222 2.28634C39.9147 2.8555 39.9157 3.42573 39.9222 3.9981C39.9261 4.11981 39.9048 4.241 39.8597 4.35418C39.8145 4.46736 39.7465 4.57011 39.6599 4.65606C39.36 4.9599 39.0557 5.26053 38.7515 5.56009C38.667 5.64389 38.5662 5.70976 38.4553 5.75371C38.3445 5.79766 38.2258 5.81878 38.1065 5.81579H37.8098C38.7322 6.98621 39.6341 8.12988 40.5586 9.30244ZM34.7601 4.28803H37.4045C37.8732 4.28803 37.8775 4.28803 38.1979 3.94996C38.2609 3.87747 38.2986 3.78664 38.3054 3.69106C38.3194 3.41396 38.2893 3.13473 38.3161 2.85978C38.34 2.71375 38.3225 2.56399 38.2655 2.42733C38.2086 2.29068 38.1144 2.17256 37.9936 2.08627C37.9104 2.00938 37.8019 1.96527 37.6883 1.96217C36.7628 1.96217 35.8361 1.96217 34.9095 1.96217C34.8622 1.96217 34.8138 1.96752 34.7622 1.96966L34.7601 4.28803Z" fill="white"/>
<path d="M15.6821 12.6973V14.2133H11.3251V16.3658H15.6789V17.9353H11.3165V18.0979C11.3165 18.4542 11.3165 18.8115 11.3165 19.1677C11.3127 19.2273 11.3221 19.287 11.3442 19.3425C11.3664 19.398 11.4006 19.448 11.4445 19.4887C11.5917 19.6289 11.7261 19.7851 11.882 19.9166C11.9632 19.9849 12.0641 20.0257 12.1701 20.0333C13.2859 20.0407 14.4018 20.0333 15.5176 20.0333H15.6832V21.5546H15.5262C14.291 21.5546 13.0537 21.5546 11.8196 21.5546C11.6751 21.5587 11.5314 21.5322 11.398 21.4769C11.2645 21.4216 11.1444 21.3387 11.0456 21.2336C10.7016 20.8827 10.3501 20.5382 10.0007 20.1927C9.90704 20.1035 9.83303 19.9959 9.78343 19.8768C9.73383 19.7576 9.70972 19.6294 9.71264 19.5005C9.71264 17.2894 9.71264 15.0756 9.71264 12.8588V12.6973H15.6821Z" fill="white"/>
<path d="M66.999 12.6992H72.9706V14.2066H68.6169V16.371H72.9695V17.9319H68.618C68.6115 17.9918 68.6051 18.0335 68.604 18.0763C68.604 18.4433 68.604 18.8092 68.604 19.1761C68.6007 19.2327 68.6101 19.2893 68.6315 19.3419C68.6529 19.3944 68.6857 19.4416 68.7276 19.48C68.877 19.619 69.0222 19.7635 69.1576 19.9079C69.1955 19.95 69.2424 19.9831 69.2949 20.0048C69.3473 20.0265 69.404 20.0361 69.4608 20.0331C70.5716 20.0331 71.6824 20.0331 72.7932 20.0331H72.9652V21.5544H72.7997C71.5645 21.5544 70.3272 21.5544 69.0942 21.5544C68.9522 21.5586 68.8109 21.533 68.6796 21.4792C68.5483 21.4253 68.4298 21.3445 68.332 21.242C67.9859 20.8922 67.6354 20.5477 67.2871 20.201C67.1932 20.1123 67.1187 20.0052 67.0684 19.8865C67.0181 19.7677 66.993 19.6399 66.9947 19.511C66.9947 17.2871 66.9947 15.0632 66.9947 12.8394L66.999 12.6992Z" fill="white"/>
<path d="M26.7984 14.2094V16.3684H31.1446V17.9346H26.8017C26.8017 17.9913 26.792 18.0341 26.792 18.0769C26.792 18.4535 26.7845 18.8258 26.792 19.2067C26.7987 19.3026 26.8364 19.3938 26.8995 19.4667C27.0393 19.6281 27.1913 19.7787 27.3542 19.9171C27.4315 19.9808 27.5271 20.0182 27.6273 20.024C28.7377 20.0315 29.8493 20.024 30.9597 20.024H31.1446V21.5454H30.9909C29.7504 21.5454 28.5098 21.5454 27.2693 21.5454C27.1294 21.5492 26.9902 21.524 26.8606 21.4713C26.7311 21.4186 26.614 21.3396 26.5168 21.2394L25.4805 20.2113C25.3859 20.123 25.3105 20.0162 25.2591 19.8977C25.2077 19.7792 25.1813 19.6514 25.1816 19.5223C25.1816 17.2777 25.1816 15.0335 25.1816 12.7897C25.1816 12.7651 25.1816 12.7405 25.1816 12.7041H31.1457V14.2094H26.7984Z" fill="white"/>
<path d="M2.5832 5.67858C2.59987 5.90687 2.59987 6.13606 2.5832 6.36435C2.5338 6.60481 2.55871 6.85453 2.65465 7.08063C2.75059 7.30673 2.91307 7.49863 3.1207 7.63106C3.12887 7.6367 3.13613 7.64355 3.1422 7.65139C3.18049 7.69691 3.22913 7.7327 3.2841 7.75577C3.33906 7.77884 3.39876 7.78854 3.45825 7.78405C4.55904 7.78405 5.66091 7.78405 6.76171 7.78405H6.94661V9.30217H6.79611C5.56058 9.30217 4.32505 9.30217 3.08952 9.30217C2.94725 9.30756 2.80543 9.28299 2.67335 9.23008C2.54127 9.17717 2.4219 9.09711 2.32305 8.99512C1.99482 8.65705 1.65906 8.32468 1.31578 7.99802C1.20274 7.89346 1.11346 7.76605 1.05395 7.62434C0.994433 7.48263 0.966052 7.32989 0.970708 7.17637C0.975008 4.99601 0.975008 2.816 0.970708 0.63635V0.450195H6.93693V1.95655H2.5961V4.11338H6.94554V5.67858H2.5832Z" fill="white"/>
<path d="M25.1827 0.448242H31.1457V1.95567H26.8027V4.11356H31.1446V5.67876H26.7909V5.93981C26.7909 6.27574 26.7834 6.61381 26.7963 6.94975C26.8055 7.04978 26.8453 7.14461 26.9102 7.22149C27.0306 7.36592 27.179 7.48574 27.3058 7.6259C27.3527 7.67988 27.4113 7.72242 27.4773 7.75025C27.5433 7.77807 27.6148 7.79043 27.6864 7.78637C28.7775 7.77996 29.8686 7.78637 30.9597 7.78637H31.1457V9.30236H30.9812C29.7504 9.30236 28.5206 9.30236 27.2897 9.30236C27.145 9.30598 27.0011 9.27928 26.8674 9.22398C26.7336 9.16869 26.6131 9.08605 26.5136 8.9814C26.1703 8.6362 25.8252 8.29277 25.4783 7.95113C25.3832 7.86326 25.3073 7.75683 25.2553 7.63847C25.2034 7.52012 25.1765 7.39238 25.1763 7.26322C25.1763 5.01937 25.1763 2.77589 25.1763 0.532761C25.1773 0.515643 25.1795 0.491036 25.1827 0.448242Z" fill="white"/>
<path d="M41.9281 12.6973H47.8975V14.2068H43.5502V16.3679H47.8932V17.9353H43.5481C43.5481 17.9856 43.5373 18.0241 43.5373 18.0626C43.5373 18.4435 43.5309 18.8254 43.5373 19.2063C43.5449 19.3023 43.5825 19.3936 43.6448 19.4673C43.7803 19.6246 43.9394 19.7615 44.0834 19.9124C44.1219 19.9543 44.1692 19.9871 44.2221 20.0084C44.2749 20.0296 44.3319 20.0389 44.3887 20.0354C45.4989 20.0354 46.6097 20.0354 47.7212 20.0354H47.8889V21.5567H47.7352C46.5 21.5567 45.2627 21.5567 44.0286 21.5567C43.8842 21.5612 43.7406 21.5349 43.6073 21.4795C43.4739 21.4241 43.3541 21.341 43.2557 21.2358C42.9332 20.9009 42.5957 20.5746 42.2592 20.2515C42.1459 20.1472 42.0566 20.0198 41.9972 19.878C41.9379 19.7362 41.9099 19.5834 41.9152 19.4299C41.9195 17.2452 41.9195 15.0606 41.9152 12.8759L41.9281 12.6973Z" fill="white"/>
<path d="M50.0635 9.30248L50.5107 8.09782C51.4423 5.59579 52.374 3.09269 53.3057 0.588512C53.3454 0.481527 53.3906 0.434453 53.5142 0.436593C54.0571 0.445152 54.6 0.436593 55.1428 0.436593C55.2256 0.436593 55.2761 0.449431 55.3095 0.543579C56.3751 3.43575 57.4423 6.32686 58.5108 9.21689C58.5197 9.24286 58.5273 9.26929 58.5334 9.29606H56.9026C56.6511 8.63132 56.4002 7.96587 56.1501 7.29971C56.0673 7.08574 56.0673 7.08574 55.8276 7.08574C54.7763 7.08574 53.726 7.08574 52.6746 7.08574C52.6294 7.07865 52.5831 7.08896 52.5451 7.11459C52.5072 7.14022 52.4805 7.17924 52.4704 7.22375C52.2285 7.87743 51.9759 8.5279 51.7329 9.18158C51.7241 9.2239 51.6994 9.26127 51.6638 9.28611C51.6283 9.31095 51.5846 9.32139 51.5416 9.31532C51.0546 9.29927 50.5719 9.30248 50.0635 9.30248ZM54.2904 2.16976C53.8765 3.35195 53.4766 4.49455 53.0735 5.64144H55.5083L54.2904 2.16976Z" fill="white"/>
<path d="M8.17335 0.436446C8.80115 0.436446 9.40314 0.436446 10.0008 0.445005C10.0492 0.445005 10.1083 0.501707 10.1438 0.55199C10.8225 1.5063 11.4987 2.46168 12.1723 3.41813C12.1917 3.44595 12.2132 3.47269 12.2465 3.51549C12.4766 3.19453 12.7002 2.87357 12.9248 2.55262C13.3993 1.8836 13.8723 1.21387 14.3438 0.543431C14.3643 0.507767 14.3946 0.478715 14.4312 0.459744C14.4678 0.440773 14.5091 0.432686 14.5502 0.436446C15.1329 0.436446 15.7155 0.436446 16.3261 0.436446C16.282 0.503847 16.2509 0.55199 16.2186 0.597994C15.244 1.97953 14.2675 3.36 13.2893 4.7394C13.2558 4.77407 13.2371 4.82026 13.2371 4.86832C13.2371 4.91637 13.2558 4.96257 13.2893 4.99724C14.2725 6.37878 15.2522 7.76459 16.2283 9.15469C16.2573 9.19427 16.2831 9.23493 16.3218 9.29163C16.2659 9.29163 16.224 9.30233 16.1831 9.30233C15.6456 9.30233 15.0974 9.30233 14.5545 9.30233C14.5112 9.30453 14.4682 9.29468 14.4302 9.27389C14.3922 9.25311 14.3608 9.2222 14.3395 9.18465C13.6687 8.23818 12.9994 7.291 12.3314 6.34311L12.2497 6.23078C12.2132 6.27892 12.1809 6.31851 12.1508 6.36023C11.4843 7.30384 10.8186 8.24817 10.1535 9.1932C10.1314 9.22969 10.0997 9.25944 10.0618 9.27925C10.0238 9.29905 9.98122 9.30814 9.93849 9.30554C9.40099 9.30019 8.86349 9.30554 8.326 9.30554H8.1626C8.35717 9.03059 8.53455 8.77061 8.713 8.52348C9.54289 7.34664 10.3735 6.17122 11.2048 4.99724C11.2381 4.96311 11.2566 4.91745 11.2566 4.86992C11.2566 4.8224 11.2381 4.77674 11.2048 4.74261C10.2166 3.3518 9.23186 1.95885 8.25075 0.563759C8.22925 0.532733 8.20882 0.499567 8.17335 0.436446Z" fill="white"/>
<path d="M19.296 14.2072V16.3534H23.6529V17.8758H19.2906V21.539H17.6899V12.7041H23.6465V14.2072H19.296Z" fill="white"/>
<path d="M65.452 14.1021L64.4028 15.2147C64.1459 14.958 63.8943 14.7322 63.6739 14.4808C63.5937 14.3848 63.4912 14.3097 63.3752 14.262C63.2593 14.2143 63.1334 14.1954 63.0085 14.2069C62.3968 14.2262 61.783 14.2155 61.1703 14.2069C61.1101 14.2032 61.0499 14.213 60.9941 14.2356C60.9383 14.2582 60.8883 14.293 60.8478 14.3374C60.7048 14.4894 60.5457 14.6263 60.4092 14.7836C60.3468 14.8518 60.309 14.9387 60.3017 15.0307C60.2952 16.4229 60.2952 17.8138 60.3017 19.2031C60.306 19.2948 60.3408 19.3825 60.4006 19.4524C60.5486 19.6197 60.7073 19.7773 60.8757 19.9242C60.9465 19.9829 61.0343 20.0174 61.1262 20.0226C61.8278 20.0312 62.5301 20.0312 63.2332 20.0226C63.3343 20.0154 63.4299 19.9738 63.5041 19.905C63.7997 19.6268 64.0835 19.3347 64.3888 19.0298L65.4348 20.1393C65.4208 20.1576 65.4057 20.1751 65.3896 20.1917C65.0403 20.5383 64.6898 20.8839 64.3437 21.2327C64.2447 21.3375 64.1246 21.4202 63.9912 21.4755C63.8578 21.5309 63.7141 21.5575 63.5697 21.5536C62.643 21.5472 61.7164 21.5472 60.7897 21.5536C60.6452 21.5577 60.5015 21.5312 60.3681 21.4758C60.2347 21.4205 60.1146 21.3376 60.0157 21.2327C59.6771 20.8903 59.3342 20.5512 58.9912 20.2141C58.8897 20.1179 58.8096 20.0015 58.7561 19.8725C58.7026 19.7435 58.6769 19.6048 58.6806 19.4653C58.6849 17.9004 58.6849 16.3352 58.6806 14.7697C58.6766 14.6303 58.702 14.4917 58.7551 14.3627C58.8083 14.2337 58.888 14.1172 58.9891 14.0208C59.3367 13.6798 59.6818 13.3368 60.0243 12.9916C60.1224 12.8891 60.2411 12.8083 60.3725 12.7543C60.504 12.7003 60.6454 12.6743 60.7876 12.6781C61.7142 12.6824 62.6405 12.6824 63.5664 12.6781C63.7112 12.6744 63.8551 12.7011 63.9888 12.7564C64.1225 12.8117 64.2431 12.8944 64.3426 12.9991C64.7231 13.3821 65.0983 13.7512 65.452 14.1021Z" fill="white"/>
<path d="M21.086 9.29906H19.4735V1.96627H16.8936V0.449219H23.6424V1.9545H21.086V9.29906Z" fill="white"/>
<path d="M59.3159 0.446289H60.9209V0.641003C60.9209 2.70154 60.9209 4.76315 60.9209 6.82369C60.9141 6.91416 60.9291 7.00493 60.9646 7.08848C61.0001 7.17202 61.0552 7.24593 61.1251 7.30406C61.2526 7.41518 61.3728 7.53417 61.4853 7.66032C61.5236 7.70228 61.571 7.73512 61.6238 7.75641C61.6767 7.77771 61.7337 7.78691 61.7906 7.78335C62.8964 7.78335 64.0026 7.78335 65.1091 7.78335H65.2918V9.30255H65.1327C63.8922 9.30255 62.6516 9.30255 61.4111 9.30255C61.2741 9.30662 61.1377 9.28218 61.0107 9.23078C60.8837 9.17938 60.7689 9.10216 60.6736 9.00406C60.3167 8.64459 59.9555 8.28939 59.5987 7.9342C59.509 7.85107 59.4376 7.75036 59.3889 7.63841C59.3402 7.52646 59.3154 7.4057 59.3159 7.28373C59.3159 5.04987 59.3159 2.81566 59.3159 0.581091V0.446289Z" fill="white"/>
</svg>
