<?xml version="1.0" encoding="utf-8"?>
<!-- Generator: Adobe Illustrator 27.5.0, SVG Export Plug-In . SVG Version: 6.00 Build 0)  -->
<svg version="1.1" id="Layer_1" xmlns="http://www.w3.org/2000/svg" xmlns:xlink="http://www.w3.org/1999/xlink" x="0px" y="0px"
	 viewBox="-15589.398 742.184 4251.97 1823.231" style="enable-background:new -15589.398 742.184 4251.97 1823.231;"
	 xml:space="preserve">
<rect x="-15589.398" y="742.184" style="fill:#FFFFFF;" width="4251.97" height="1823.231"/>
<g>
	<g>
		<path style="fill-rule:evenodd;clip-rule:evenodd;fill:#141515;" d="M-14241.789,1447.237l1138.863,0
			c112.762,0,205.255,92.438,205.255,205.101l0,0c0,112.663-92.493,205.104-205.255,205.104h-1138.863
			c-112.715,0-205.203-92.44-205.203-205.104l0,0C-14446.992,1539.675-14354.504,1447.237-14241.789,1447.237L-14241.789,1447.237z"
			/>
		<path style="fill:#141515;" d="M-13102.926,1871.866h-1138.863c-121.141,0-219.68-98.489-219.68-219.529
			c0-121.037,98.539-219.525,219.68-219.525l1138.863,0c121.14,0,219.727,98.488,219.727,219.525
			C-12883.199,1773.378-12981.786,1871.866-13102.926,1871.866z M-14241.789,1461.66c-105.182,0-190.778,85.549-190.778,190.677
			c0,105.129,85.597,190.68,190.778,190.68h1138.863c105.229,0,190.778-85.551,190.778-190.68s-85.549-190.677-190.778-190.677
			L-14241.789,1461.66z"/>
	</g>
	<g>
		<path style="fill:#141515;" d="M-14553.955,1614.769c7.235-12.987,14.424-33.209,14.424-51.996
			c0-30.335-11.55-57.743-39.007-80.891c-28.948-23.1-63.593-34.646-102.604-34.646h-124.31v411.691h169.117
			c43.319,0,80.891-13.086,108.352-39.058c27.461-25.974,40.494-57.793,40.494-93.877
			C-14487.488,1679.796-14513.51,1633.552-14553.955,1614.769L-14553.955,1614.769z M-14636.334,1760.69h-67.955v-82.378
			c23.147,0,43.372-1.39,66.468,0c12.988,1.484,23.147,4.361,33.262,12.987c8.671,8.723,13.032,17.345,13.032,28.943
			C-14591.527,1743.342-14613.234,1760.69-14636.334,1760.69L-14636.334,1760.69z M-14650.806,1571.447
			c0,17.349-15.911,27.458-33.257,28.899c-7.188,1.436-14.424,1.436-20.227,1.436v-56.306h23.147
			C-14665.277,1545.476-14650.806,1556.973-14650.806,1571.447L-14650.806,1571.447z"/>
	</g>
	<g>
		<path style="fill:#FEFEFE;" d="M-14402.237,1505.031c-43.367,41.832-65.026,91-65.026,148.744
			c0,56.357,21.659,106.915,65.026,147.36c44.808,40.445,91.054,60.668,154.646,60.669c63.593,0,111.273-20.224,156.081-60.669
			c41.933-40.445,63.646-89.616,63.646-147.36s-21.713-106.912-63.646-148.745c-44.808-40.445-92.488-62.156-156.081-62.156
			C-14309.696,1442.875-14357.43,1464.585-14402.237,1505.031L-14402.237,1505.031z M-14168.087,1577.198
			c24.534,21.708,36.132,46.244,36.132,75.14c0,30.334-11.598,54.92-36.132,76.529c-24.535,21.71-44.807,31.822-79.504,31.822
			c-34.644,0-54.917-10.112-79.451-31.822c-24.586-21.61-36.185-46.195-36.185-76.53c0-28.896,11.599-53.432,36.185-75.14
			c24.534-21.612,44.808-31.722,79.451-31.722C-14212.894,1545.476-14192.622,1555.586-14168.087,1577.198L-14168.087,1577.198z"/>
		<path style="fill:#141515;" d="M-14247.591,1867.602c-62.004,0-110.877-19.182-158.511-62.155
			c-43.816-40.891-66.964-93.332-66.964-151.672c0-59.527,21.86-109.538,66.816-152.91c48.871-44.161,97.792-63.789,158.658-63.789
			c61.908,0,111.227,19.628,159.95,63.64c43.568,43.471,65.524,94.871,65.524,153.059c0,58.686-22.009,109.641-65.328,151.523
			C-14135.227,1848.42-14184.591,1867.602-14247.591,1867.602z M-14247.591,1448.673c-57.791,0-104.286,18.686-150.777,60.668
			c-42.43,40.94-63.101,88.227-63.101,144.433c0,55.862,21.217,103.991,63.148,143.147c45.898,41.387,91.002,59.08,150.729,59.08
			c59.925,0,106.912-18.238,152.217-59.18c40.889-39.455,61.708-87.633,61.708-143.047c0-55.761-20.272-103.096-61.904-144.682
			C-14141.865,1467.359-14188.758,1448.673-14247.591,1448.673z M-14247.591,1766.489c-38.217,0-59.48-12.244-83.32-33.311
			c-25.576-22.551-38.063-48.97-38.063-80.84c0-30.83,12.487-56.802,38.063-79.454c23.894-21.014,45.203-33.209,83.32-33.209
			c38.163,0,59.433,12.195,83.319,33.162c25.625,22.7,38.069,48.672,38.069,79.502c0,31.87-12.444,58.289-38.069,80.891
			C-14188.063,1754.245-14209.375,1766.489-14247.591,1766.489z M-14247.591,1551.275c-34.644,0-53.335,10.607-75.687,30.285
			c-23,20.321-34.152,43.467-34.152,70.778c0,28.75,10.855,51.696,34.152,72.168c22.305,19.727,40.941,30.386,75.687,30.386
			c34.744,0,53.382-10.659,75.688-30.335c23.295-20.522,34.2-43.468,34.2-72.218c0-27.311-11.201-50.458-34.2-70.829
			C-14194.209,1561.882-14212.894,1551.275-14247.591,1551.275z"/>
	</g>
	<g>
		<path style="fill:#FEFEFE;" d="M-13251.771,1505.031c-41.933,41.833-63.593,91.001-63.593,148.745
			c0,56.356,21.66,106.915,63.593,147.36c44.808,40.445,92.488,60.669,156.08,60.669c62.158,0,109.84-20.224,154.646-60.669
			c43.373-40.445,65.033-89.616,65.033-147.36c0-57.744-21.66-106.912-65.033-148.745c-44.807-40.445-92.488-62.155-154.646-62.155
			C-13159.282,1442.875-13206.963,1464.585-13251.771,1505.031L-13251.771,1505.031z M-13017.621,1577.198
			c24.534,21.708,37.571,46.245,37.571,75.14c0,30.336-13.037,54.92-37.571,76.529c-23.147,21.71-44.807,31.822-78.069,31.822
			c-34.69,0-56.351-10.112-79.498-31.822c-24.539-21.61-36.137-46.193-36.137-76.529c0-28.896,11.598-53.433,36.137-75.14
			c23.147-21.612,44.808-31.722,79.498-31.722C-13062.428,1545.476-13040.769,1555.586-13017.621,1577.198L-13017.621,1577.198z"/>
		<path style="fill:#141515;" d="M-13095.69,1867.602c-62.994,0-112.364-19.182-159.944-62.155
			c-42.923-41.387-65.525-93.777-65.525-151.671c0-58.188,22.005-109.638,65.324-152.86c48.973-44.211,98.289-63.838,160.146-63.838
			c60.867,0,109.792,19.627,158.516,63.641c45.104,43.52,66.959,93.531,66.959,153.058c0,59.183-22.501,110.186-66.91,151.572
			C-12984.809,1848.42-13033.68,1867.602-13095.69,1867.602z M-13095.69,1448.674c-58.781,0-105.721,18.685-152.211,60.668
			c-41.44,41.337-61.66,88.624-61.66,144.433c0,54.671,21.362,104.187,61.808,143.197c45.205,40.792,92.14,59.03,152.063,59.03
			c58.935,0,105.43-18.238,150.782-59.18c41.881-39.01,63.095-87.186,63.095-143.047c0-56.207-20.669-103.541-63.242-144.582
			C-12991.403,1467.359-13037.893,1448.674-13095.69,1448.674z M-13095.69,1766.489c-34.447,0-57.838-9.37-83.415-33.409
			c-25.528-22.454-37.969-48.923-37.969-80.742c0-30.78,12.392-56.801,38.069-79.454c25.523-23.84,48.92-33.209,83.314-33.209
			c32.961,0,56.706,9.666,82.035,33.311c26.465,23.394,39.354,49.417,39.354,79.353c0,30.979-12.889,57.447-39.503,80.841
			C-13038.936,1756.773-13062.729,1766.489-13095.69,1766.489z M-13095.69,1551.275c-31.521,0-51.989,8.178-75.587,30.137
			c-23.095,20.469-34.3,43.616-34.3,70.927c0,28.699,10.909,51.648,34.205,72.218c23.64,22.154,44.113,30.335,75.682,30.335
			c30.087,0,50.905-8.477,74.105-30.234c24.434-21.512,35.782-44.463,35.782-72.319c0-26.418-11.693-49.616-35.635-70.829
			C-13044.785,1559.701-13065.604,1551.275-13095.69,1551.275z"/>
	</g>
	<g>
		<polygon style="fill:#141515;" points="-12896.237,1546.863 -12790.711,1546.863 -12789.272,1858.93 -12675.124,1858.93 
			-12679.438,1546.863 -12573.912,1546.863 -12573.912,1447.237 -12896.237,1447.237 		"/>
	</g>
	<g>
		<polygon style="fill:#141515;" points="-12553.688,1546.863 -12448.214,1546.863 -12446.728,1858.93 -12332.575,1858.93 
			-12336.889,1546.863 -12231.416,1546.863 -12231.416,1447.237 -12553.688,1447.237 		"/>
	</g>
	<g>
		<polygon style="fill:#FEFEFE;" points="-13920.953,1682.673 -13920.953,1858.928 -13808.191,1858.93 -13808.191,1682.673 
			-13670.896,1447.237 -13785.093,1447.237 -13864.597,1580.12 -13942.613,1447.237 -14056.813,1447.237 		"/>
	</g>
	<g>
		<path style="fill:#FEFEFE;" d="M-13459.895,1442.875h-12.988c-63.594,0-118.51,21.71-164.804,62.155
			c-43.321,40.445-65.028,91-65.028,147.308c0,57.793,21.707,108.352,65.028,148.797c44.806,40.445,101.21,60.669,164.804,60.669
			c33.209,0,62.11-5.85,91.053-17.35c27.462-11.6,50.556-25.97,70.781-46.243l5.796-5.801l-72.263-72.169l-5.802,5.752
			c-25.973,23.096-54.917,34.696-89.565,34.696c-34.692,0-63.594-10.112-88.175-31.822c-24.586-20.224-36.132-46.193-36.132-75.092
			c0-30.333,11.546-54.87,36.132-76.577c24.581-21.612,53.482-31.722,88.175-31.722c34.648,0,63.593,11.498,88.131,34.644
			l7.236,5.801l72.263-70.78l-5.796-7.236c-34.65-33.209-86.691-60.667-150.284-63.544L-13459.895,1442.875z"/>
	</g>
	<g>
		<path style="fill:#141515;" d="M-12838.441,1874.787c18.786,15.864,28.944,36.084,28.944,59.184
			c0,23.098-10.158,43.32-28.944,59.279c-18.785,17.348-36.136,24.486-62.104,24.486c-27.461,0-43.372-7.139-62.158-24.486
			c-18.785-15.959-28.948-36.183-28.948-59.279c0-23.1,10.163-43.319,28.948-59.184c18.786-17.346,34.697-24.581,62.158-24.581
			C-12873.09,1850.206-12857.227,1857.442-12838.441,1874.787L-12838.441,1874.787z"/>
	</g>
	<g>
		<path style="fill:#141515;" d="M-12758.941,2039.446c7.24,5.75,11.55,12.988,11.55,21.61c0,8.724-4.31,15.962-11.55,23.197
			c-7.236,5.751-12.984,8.626-23.095,8.626c-10.163,0-15.911-2.875-23.147-8.626c-7.236-7.235-10.11-14.474-10.11-23.197
			c0-8.622,2.874-15.86,10.11-21.61c7.236-7.238,12.984-10.112,23.147-10.112
			C-12771.926,2029.333-12766.178,2032.207-12758.941,2039.446L-12758.941,2039.446z"/>
	</g>
	<g>
		<polygon style="fill:#FEFEFE;" points="-13214.893,1774.122 -13265.549,1686.588 -12998.094,1532.042 -12947.539,1619.576 		"/>
	</g>
</g>
</svg>
