<svg width="134" height="12" viewBox="0 0 134 12" fill="none" xmlns="http://www.w3.org/2000/svg">
<path d="M0.490723 11.3588C1.16064 11.287 1.57933 11.1654 1.74681 10.9941C1.91429 10.8173 1.99803 10.3614 1.99803 9.62653V2.27459C1.99803 1.66676 1.90312 1.27168 1.71331 1.08933C1.52909 0.90698 1.12156 0.793703 0.490723 0.749497V0.434532H5.25548V0.749497C4.62464 0.793703 4.21432 0.90698 4.02451 1.08933C3.8347 1.27168 3.7398 1.66676 3.7398 2.27459V5.58172H8.93999V2.27459C8.93999 1.66676 8.84788 1.27168 8.66366 1.08933C8.47943 0.90698 8.06911 0.793703 7.43269 0.749497V0.434532H12.1974V0.749497C11.5666 0.793703 11.1563 0.90698 10.9665 1.08933C10.7823 1.27168 10.6901 1.66676 10.6901 2.27459V9.82546C10.6901 10.4443 10.7823 10.8422 10.9665 11.019C11.1563 11.1903 11.5666 11.3036 12.1974 11.3588V11.6655H7.43269V11.3588C8.10819 11.2925 8.52688 11.171 8.68878 10.9941C8.85626 10.8173 8.93999 10.3614 8.93999 9.62653V6.32769H3.7398V9.82546C3.7398 10.4443 3.8347 10.8422 4.02451 11.019C4.21432 11.1958 4.62464 11.3091 5.25548 11.3588V11.6655H0.490723V11.3588Z" fill="white"/>
<path d="M16.5351 3.89086C17.3223 3.89086 18.0117 4.16162 18.6035 4.70313C19.1952 5.23913 19.4911 6.00167 19.4911 6.99077H14.1737C14.2295 8.27273 14.5226 9.20658 15.0529 9.7923C15.5833 10.378 16.2113 10.6709 16.9371 10.6709C17.5232 10.6709 18.0173 10.5189 18.4193 10.215C18.8212 9.9111 19.1924 9.4801 19.533 8.922L19.8261 9.02147C19.5972 9.72323 19.1673 10.3725 18.5365 10.9693C17.9112 11.5661 17.1436 11.8644 16.2337 11.8644C15.1841 11.8644 14.3719 11.4721 13.7969 10.6875C13.2274 9.90282 12.9427 8.99936 12.9427 7.97711C12.9427 6.86644 13.2749 5.90774 13.9392 5.10098C14.6035 4.29423 15.4689 3.89086 16.5351 3.89086ZM16.0494 4.49592C15.413 4.49592 14.9273 4.77497 14.5924 5.33306C14.4137 5.63145 14.2853 6.0072 14.2072 6.46031H17.741C17.6796 5.90774 17.5735 5.49607 17.4228 5.22531C17.1492 4.73905 16.6914 4.49592 16.0494 4.49592Z" fill="white"/>
<path d="M25.1435 7.07366C24.5015 7.28363 23.9712 7.51571 23.5525 7.7699C22.7486 8.26168 22.3466 8.81978 22.3466 9.44418C22.3466 9.94702 22.5141 10.3172 22.8491 10.5548C23.0668 10.7096 23.3096 10.7869 23.5776 10.7869C23.946 10.7869 24.2977 10.6847 24.6327 10.4803C24.9732 10.2758 25.1435 10.0161 25.1435 9.70113V7.07366ZM20.8561 10.0161C20.8561 9.21487 21.2608 8.54626 22.0703 8.01026C22.5839 7.67872 23.6083 7.22838 25.1435 6.65923V5.9547C25.1435 5.39108 25.0877 4.99876 24.976 4.77773C24.7862 4.40751 24.3926 4.2224 23.7953 4.2224C23.5106 4.2224 23.2398 4.29423 22.983 4.4379C22.7262 4.58709 22.5978 4.79154 22.5978 5.05125C22.5978 5.11756 22.6118 5.23084 22.6397 5.39108C22.6676 5.5458 22.6816 5.64527 22.6816 5.68947C22.6816 5.99891 22.5783 6.21441 22.3717 6.33598C22.2545 6.40781 22.1149 6.44373 21.953 6.44373C21.7018 6.44373 21.5092 6.36361 21.3752 6.20336C21.2413 6.03759 21.1743 5.85524 21.1743 5.65632C21.1743 5.26952 21.4143 4.86614 21.8944 4.44619C22.3801 4.02071 23.0891 3.80797 24.0214 3.80797C25.1044 3.80797 25.8385 4.15609 26.2237 4.85233C26.4303 5.2336 26.5336 5.78893 26.5336 6.51833V9.84203C26.5336 10.1625 26.5559 10.3836 26.6006 10.5051C26.6731 10.7206 26.8239 10.8284 27.0528 10.8284C27.1812 10.8284 27.2872 10.809 27.371 10.7703C27.4547 10.7317 27.5998 10.6377 27.8064 10.4885V10.9195C27.6278 11.135 27.4352 11.3119 27.2286 11.45C26.916 11.66 26.5978 11.765 26.274 11.765C25.8944 11.765 25.618 11.6434 25.445 11.4003C25.2775 11.1571 25.1854 10.867 25.1686 10.53C24.7443 10.8947 24.3815 11.1654 24.08 11.3423C23.572 11.6406 23.0891 11.7898 22.6313 11.7898C22.1512 11.7898 21.7353 11.6241 21.3836 11.2925C21.0319 10.9555 20.8561 10.53 20.8561 10.0161Z" fill="white"/>
<path d="M32.2111 4.02347V4.62025H30.5028L30.4861 9.39445C30.4861 9.8144 30.5223 10.1321 30.5949 10.3476C30.7289 10.7289 30.9913 10.9195 31.3821 10.9195C31.583 10.9195 31.7561 10.8726 31.9012 10.7786C32.052 10.6847 32.2222 10.5355 32.4121 10.3311L32.6298 10.5134L32.4456 10.7621C32.1553 11.1489 31.8482 11.4224 31.5244 11.5826C31.2006 11.7429 30.888 11.823 30.5865 11.823C29.9278 11.823 29.4812 11.5329 29.2467 10.9527C29.1183 10.6377 29.0541 10.2012 29.0541 9.64311V4.62025H28.1414C28.1134 4.60367 28.0911 4.58709 28.0744 4.57052C28.0632 4.55394 28.0576 4.53184 28.0576 4.50421C28.0576 4.44895 28.0688 4.40751 28.0911 4.37988C28.119 4.34673 28.2 4.27489 28.334 4.16438C28.7192 3.84941 28.9955 3.59523 29.163 3.40183C29.336 3.20291 29.738 2.68349 30.3688 1.84359C30.4414 1.84359 30.4833 1.84911 30.4944 1.86016C30.5112 1.87121 30.5196 1.91266 30.5196 1.98449V4.02347H32.2111Z" fill="white"/>
<path d="M32.7721 11.4334C33.2299 11.3727 33.5286 11.2621 33.6681 11.1019C33.8133 10.9361 33.8859 10.5493 33.8859 9.94149V1.98449C33.8859 1.67505 33.844 1.4485 33.7603 1.30483C33.6821 1.15564 33.4867 1.08104 33.1741 1.08104C33.1127 1.08104 33.0513 1.08656 32.9899 1.09762C32.934 1.10314 32.8698 1.11143 32.7973 1.12248V0.824094C33.0429 0.75226 33.3443 0.666612 33.7016 0.567149C34.0645 0.462161 34.3157 0.387564 34.4553 0.343358L35.2592 0.0947021L35.2759 0.152722V5.24189C35.6276 4.84404 35.9403 4.55118 36.2138 4.3633C36.7051 4.03176 37.2354 3.86599 37.8049 3.86599C38.7092 3.86599 39.3261 4.24174 39.6555 4.99323C39.8341 5.39108 39.9235 5.91326 39.9235 6.55977V9.94149C39.9235 10.5272 39.9904 10.9085 40.1244 11.0853C40.264 11.2621 40.5459 11.3782 40.9702 11.4334V11.6655H37.3443V11.4334C37.83 11.3671 38.1426 11.2538 38.2822 11.0936C38.4217 10.9334 38.4915 10.5493 38.4915 9.94149V6.58463C38.4915 6.04864 38.3994 5.61487 38.2152 5.28333C38.0365 4.95179 37.696 4.78602 37.1936 4.78602C36.7581 4.78602 36.3366 4.94074 35.9291 5.25018C35.5216 5.55962 35.3178 5.7613 35.3178 5.85524V9.94149C35.3178 10.5604 35.3904 10.9472 35.5355 11.1019C35.6807 11.2566 35.9905 11.3671 36.465 11.4334V11.6655H32.7721V11.4334Z" fill="white"/>
<path d="M45.1236 3.89086C45.9108 3.89086 46.6002 4.16162 47.192 4.70313C47.7838 5.23913 48.0796 6.00167 48.0796 6.99077H42.7622C42.818 8.27273 43.1111 9.20658 43.6415 9.7923C44.1718 10.378 44.7999 10.6709 45.5256 10.6709C46.1118 10.6709 46.6058 10.5189 47.0078 10.215C47.4097 9.9111 47.781 9.4801 48.1215 8.922L48.4146 9.02147C48.1857 9.72323 47.7558 10.3725 47.125 10.9693C46.4998 11.5661 45.7322 11.8644 44.8222 11.8644C43.7727 11.8644 42.9604 11.4721 42.3854 10.6875C41.816 9.90282 41.5312 8.99936 41.5312 7.97711C41.5312 6.86644 41.8634 5.90774 42.5277 5.10098C43.1921 4.29423 44.0574 3.89086 45.1236 3.89086ZM44.638 4.49592C44.0015 4.49592 43.5159 4.77497 43.1809 5.33306C43.0023 5.63145 42.8739 6.0072 42.7957 6.46031H46.3295C46.2681 5.90774 46.162 5.49607 46.0113 5.22531C45.7377 4.73905 45.28 4.49592 44.638 4.49592Z" fill="white"/>
<path d="M48.8919 11.392C49.4055 11.3478 49.746 11.2594 49.9135 11.1268C50.081 10.9886 50.1647 10.6985 50.1647 10.2565V6.51833C50.1647 5.97128 50.1117 5.58172 50.0056 5.34964C49.9051 5.11204 49.7181 4.99323 49.4446 4.99323C49.3888 4.99323 49.3134 5.00152 49.2185 5.0181C49.1292 5.02915 49.0343 5.04573 48.9338 5.06783V4.79431C49.252 4.68379 49.5786 4.57052 49.9135 4.45448C50.2485 4.33844 50.4802 4.25555 50.6086 4.20582C50.8877 4.10083 51.1752 3.98203 51.4711 3.84941C51.5101 3.84941 51.5325 3.86323 51.5381 3.89086C51.5492 3.91848 51.5548 3.9765 51.5548 4.06492V5.42424C51.9121 4.93245 52.2554 4.54841 52.5848 4.27213C52.9198 3.99584 53.2659 3.8577 53.6232 3.8577C53.9079 3.8577 54.1396 3.94335 54.3182 4.11465C54.4968 4.28042 54.5862 4.49039 54.5862 4.74458C54.5862 4.97113 54.5164 5.16177 54.3768 5.31649C54.2428 5.47121 54.0726 5.54857 53.866 5.54857C53.6539 5.54857 53.4389 5.45187 53.2212 5.25847C53.0091 5.06507 52.8416 4.96837 52.7188 4.96837C52.5234 4.96837 52.2833 5.12585 51.9986 5.44081C51.7139 5.75025 51.5716 6.07074 51.5716 6.40229V10.1404C51.5716 10.6156 51.6832 10.9472 51.9065 11.135C52.1298 11.3174 52.5011 11.403 53.0202 11.392V11.6655H48.8919V11.392Z" fill="white"/>
<path d="M62.4995 4.2224C62.1645 4.26108 61.9161 4.31634 61.7542 4.38817C61.5923 4.46 61.5114 4.60367 61.5114 4.81917C61.5114 4.93521 61.5281 5.05678 61.5616 5.18387C61.6007 5.30544 61.6509 5.4491 61.7124 5.61487L63.2364 9.55193L64.727 5.9547C64.794 5.79998 64.8665 5.5983 64.9447 5.34964C65.0228 5.09546 65.0619 4.90482 65.0619 4.77773C65.0619 4.57328 64.9977 4.43514 64.8693 4.3633C64.7409 4.29147 64.5539 4.23898 64.3083 4.20582V3.96545H66.4352V4.20582C66.2957 4.23345 66.1812 4.29976 66.0919 4.40475C66.0026 4.50973 65.877 4.75839 65.7151 5.15072L63.0354 11.6904C63.0131 11.7401 62.9936 11.776 62.9768 11.7981C62.9601 11.8202 62.9349 11.8313 62.9015 11.8313C62.8345 11.7981 62.7954 11.7705 62.7842 11.7484L60.8917 7.1151L58.6894 11.7318C58.6782 11.7594 58.6615 11.7816 58.6391 11.7981C58.6224 11.8202 58.6001 11.8313 58.5721 11.8313C58.5051 11.7981 58.4661 11.7705 58.4549 11.7484L55.9511 5.63974C55.6776 4.97113 55.4961 4.57881 55.4068 4.46277C55.3175 4.3412 55.1416 4.26108 54.8792 4.2224V3.96545H57.9776V4.2224C57.7208 4.2445 57.5226 4.29147 57.383 4.3633C57.2491 4.42961 57.1821 4.57604 57.1821 4.8026C57.1821 4.96284 57.2965 5.35517 57.5254 5.97957C57.6594 6.33874 57.8297 6.77527 58.0362 7.28916L58.9908 9.64311L60.4981 6.44373L60.5149 6.34427C60.5149 6.23375 60.4535 6.0293 60.3307 5.73091C60.2134 5.427 60.099 5.15624 59.9873 4.91864C59.8757 4.66998 59.7473 4.49868 59.6021 4.40475C59.4626 4.30528 59.2644 4.2445 59.0076 4.2224V3.96545H62.4995V4.2224Z" fill="white"/>
<path d="M68.3277 0.964999C68.3277 0.727394 68.4115 0.522944 68.579 0.351647C68.7464 0.18035 68.953 0.0947021 69.1986 0.0947021C69.4387 0.0947021 69.6424 0.18035 69.8099 0.351647C69.983 0.517418 70.0695 0.721869 70.0695 0.964999C70.0695 1.2026 69.983 1.40706 69.8099 1.57835C69.6424 1.74412 69.4387 1.82701 69.1986 1.82701C68.953 1.82701 68.7464 1.74412 68.579 1.57835C68.4115 1.40706 68.3277 1.2026 68.3277 0.964999ZM67.2559 11.4334C67.8532 11.3782 68.23 11.2787 68.3864 11.135C68.5427 10.9859 68.6208 10.588 68.6208 9.94149V5.98786C68.6208 5.62869 68.5957 5.38003 68.5455 5.24189C68.4617 5.01534 68.2859 4.90206 68.0179 4.90206C67.9565 4.90206 67.8951 4.90758 67.8337 4.91864C67.7779 4.92969 67.6104 4.97389 67.3312 5.05125V4.79431L67.6913 4.67827C68.6683 4.3633 69.3494 4.1257 69.7346 3.96545C69.8909 3.89914 69.9914 3.86599 70.036 3.86599C70.0472 3.90467 70.0528 3.94611 70.0528 3.99032V9.94149C70.0528 10.5714 70.1281 10.9665 70.2789 11.1268C70.4352 11.287 70.7841 11.3892 71.3256 11.4334V11.6655H67.2559V11.4334Z" fill="white"/>
<path d="M75.9564 3.84941C76.6542 3.84941 77.2543 4.029 77.7568 4.38817C78.2648 4.74181 78.5188 5.13138 78.5188 5.55685C78.5188 5.7392 78.4546 5.9105 78.3262 6.07074C78.1978 6.22546 77.9996 6.30282 77.7316 6.30282C77.5362 6.30282 77.3632 6.23652 77.2125 6.1039C77.0673 5.97128 76.9612 5.77788 76.8942 5.5237L76.7938 5.12585C76.7212 4.83299 76.5956 4.62577 76.4169 4.50421C76.2327 4.38817 75.9899 4.33015 75.6884 4.33015C75.052 4.33015 74.5133 4.60643 74.0722 5.159C73.6368 5.70605 73.4191 6.43544 73.4191 7.34718C73.4191 8.18156 73.6591 8.93029 74.1392 9.59338C74.6249 10.2565 75.2781 10.588 76.0987 10.588C76.6793 10.588 77.1957 10.4001 77.6479 10.0244C77.9047 9.80888 78.195 9.46629 78.5188 8.9966L78.7533 9.13751C78.4351 9.80059 78.1001 10.3255 77.7484 10.7123C77.0729 11.4528 76.2913 11.823 75.4037 11.823C74.5328 11.823 73.7624 11.4832 73.0925 10.8035C72.4226 10.1238 72.0876 9.20105 72.0876 8.03513C72.0876 6.89131 72.4533 5.90774 73.1846 5.08441C73.9159 4.26108 74.8399 3.84941 75.9564 3.84941Z" fill="white"/>
<path d="M79.3478 11.4334C79.8837 11.3948 80.2354 11.3063 80.4029 11.1682C80.576 11.0301 80.6625 10.7317 80.6625 10.273V1.96791C80.6625 1.57559 80.5955 1.32693 80.4615 1.22194C80.3276 1.11696 80.1349 1.06446 79.8837 1.06446C79.7777 1.06446 79.6856 1.06722 79.6074 1.07275C79.5292 1.07828 79.4427 1.08656 79.3478 1.09762V0.865537L80.1015 0.666612C80.6765 0.517418 81.1649 0.376513 81.5669 0.243896C81.8125 0.16101 81.9549 0.119568 81.994 0.119568C82.0275 0.119568 82.047 0.127856 82.0526 0.144433C82.0637 0.155485 82.0693 0.185876 82.0693 0.235607V7.20627L84.3889 5.18387C84.5564 5.03468 84.668 4.91587 84.7239 4.82746C84.7853 4.73905 84.816 4.66169 84.816 4.59538C84.816 4.46829 84.7518 4.38817 84.6234 4.35501C84.5005 4.32186 84.2772 4.297 83.9535 4.28042V4.04834H87.4454V4.28042C86.8201 4.3191 86.3177 4.44343 85.9381 4.6534C85.5584 4.85785 84.8299 5.4491 83.7525 6.42715L83.2584 6.87473L84.8076 8.86398C85.6003 9.88071 86.1977 10.5576 86.5996 10.8947C87.0016 11.2262 87.4286 11.4113 87.8808 11.45V11.6655H84.1544V11.4334L84.4475 11.4169C84.5424 11.4113 84.6289 11.392 84.7071 11.3588C84.7853 11.3257 84.8243 11.2704 84.8243 11.1931C84.8243 11.1323 84.8104 11.077 84.7825 11.0273C84.7546 10.972 84.7155 10.9113 84.6652 10.8449L82.0693 7.46322V10.53C82.0693 10.9113 82.2117 11.1654 82.4964 11.2925C82.6639 11.3699 82.9514 11.4113 83.3589 11.4169V11.6655H79.3478V11.4334Z" fill="white"/>
<path d="M93.0643 9.05462H93.3406C93.469 9.68455 93.6421 10.168 93.8598 10.5051C94.2506 11.124 94.8228 11.4334 95.5764 11.4334C95.9951 11.4334 96.3245 11.3202 96.5646 11.0936C96.8102 10.8615 96.933 10.5631 96.933 10.1984C96.933 9.96636 96.8632 9.74257 96.7237 9.52707C96.5841 9.31157 96.3385 9.10159 95.9868 8.89714L95.0489 8.36667C94.3622 8.00198 93.857 7.63452 93.5332 7.26429C93.2094 6.89407 93.0475 6.45754 93.0475 5.9547C93.0475 5.33583 93.2708 4.82746 93.7174 4.42961C94.164 4.03176 94.7251 3.83284 95.4006 3.83284C95.6965 3.83284 96.0202 3.88809 96.372 3.99861C96.7292 4.10912 96.9302 4.16438 96.9749 4.16438C97.0754 4.16438 97.1479 4.15056 97.1926 4.12294C97.2373 4.09531 97.2763 4.0511 97.3098 3.99032H97.5108L97.5694 6.30282H97.3098C97.1982 5.76683 97.0475 5.34964 96.8576 5.05125C96.5115 4.49868 96.0119 4.2224 95.3587 4.2224C94.9679 4.2224 94.6609 4.3412 94.4376 4.57881C94.2143 4.81641 94.1026 5.09546 94.1026 5.41595C94.1026 5.92431 94.4878 6.37742 95.2582 6.77527L96.3636 7.36376C97.5527 8.00474 98.1472 8.75071 98.1472 9.60166C98.1472 10.2537 97.8988 10.7869 97.4019 11.2014C96.9107 11.6158 96.2659 11.823 95.4676 11.823C95.1326 11.823 94.753 11.7677 94.3287 11.6572C93.9044 11.5467 93.6532 11.4915 93.5751 11.4915C93.5081 11.4915 93.4495 11.5163 93.3992 11.5661C93.349 11.6103 93.3099 11.6655 93.282 11.7318H93.0643V9.05462Z" fill="white"/>
<path d="M103.222 4.02347V4.62025H101.514L101.497 9.39445C101.497 9.8144 101.533 10.1321 101.606 10.3476C101.74 10.7289 102.002 10.9195 102.393 10.9195C102.594 10.9195 102.767 10.8726 102.912 10.7786C103.063 10.6847 103.233 10.5355 103.423 10.3311L103.641 10.5134L103.456 10.7621C103.166 11.1489 102.859 11.4224 102.535 11.5826C102.211 11.7429 101.899 11.823 101.597 11.823C100.939 11.823 100.492 11.5329 100.257 10.9527C100.129 10.6377 100.065 10.2012 100.065 9.64311V4.62025H99.1521C99.1242 4.60367 99.1019 4.58709 99.0851 4.57052C99.0739 4.55394 99.0684 4.53184 99.0684 4.50421C99.0684 4.44895 99.0795 4.40751 99.1019 4.37988C99.1298 4.34673 99.2107 4.27489 99.3447 4.16438C99.7299 3.84941 100.006 3.59523 100.174 3.40183C100.347 3.20291 100.749 2.68349 101.38 1.84359C101.452 1.84359 101.494 1.84911 101.505 1.86016C101.522 1.87121 101.53 1.91266 101.53 1.98449V4.02347H103.222Z" fill="white"/>
<path d="M106.287 3.99032V9.29499C106.287 9.67074 106.34 9.97189 106.446 10.1984C106.652 10.6184 107.032 10.8284 107.585 10.8284C107.964 10.8284 108.335 10.704 108.698 10.4554C108.905 10.3172 109.114 10.1266 109.326 9.88348V5.34135C109.326 4.91587 109.243 4.63683 109.075 4.50421C108.908 4.37159 108.573 4.29147 108.07 4.26384V3.99032H110.775V9.82546C110.775 10.2012 110.842 10.4609 110.976 10.6046C111.116 10.7427 111.406 10.8035 111.847 10.7869V11.019C111.54 11.1019 111.314 11.1654 111.169 11.2096C111.023 11.2483 110.781 11.3229 110.44 11.4334C110.295 11.4832 109.977 11.602 109.485 11.7898C109.458 11.7898 109.441 11.776 109.435 11.7484C109.43 11.7263 109.427 11.6987 109.427 11.6655V10.3311C109.047 10.7786 108.701 11.1102 108.389 11.3257C107.914 11.6572 107.412 11.823 106.881 11.823C106.396 11.823 105.938 11.6517 105.508 11.3091C105.072 10.972 104.855 10.4057 104.855 9.60995V5.3082C104.855 4.86614 104.76 4.57052 104.57 4.42132C104.447 4.32739 104.185 4.26108 103.783 4.2224V3.99032H106.287Z" fill="white"/>
<path d="M116.268 3.83284C116.676 3.83284 117.05 3.92125 117.39 4.09807C117.614 4.21411 117.829 4.37435 118.035 4.57881V1.94305C118.035 1.60598 117.996 1.3739 117.918 1.24681C117.845 1.11972 117.667 1.05617 117.382 1.05617C117.315 1.05617 117.256 1.05894 117.206 1.06446C117.156 1.06999 117.044 1.08104 116.871 1.09762V0.824094L117.558 0.650035C117.809 0.583726 118.06 0.514655 118.312 0.442821C118.563 0.370987 118.783 0.301916 118.973 0.235607C119.062 0.207979 119.21 0.155485 119.417 0.078125L119.467 0.0947021L119.45 0.964999C119.445 1.27996 119.439 1.60598 119.434 1.94305C119.428 2.27459 119.425 2.60337 119.425 2.92938L119.409 9.70113C119.409 10.0603 119.453 10.3117 119.543 10.4554C119.632 10.5991 119.869 10.6709 120.254 10.6709C120.316 10.6709 120.377 10.6709 120.439 10.6709C120.5 10.6654 120.561 10.6571 120.623 10.646V10.9195C120.589 10.9306 120.185 11.0687 119.409 11.334L118.094 11.823L118.035 11.7484V10.7289C117.723 11.066 117.452 11.3063 117.223 11.45C116.815 11.6987 116.344 11.823 115.808 11.823C114.859 11.823 114.088 11.4611 113.497 10.7372C112.91 10.0078 112.617 9.16513 112.617 8.20919C112.617 7.01011 112.969 5.98233 113.672 5.12585C114.381 4.26384 115.247 3.83284 116.268 3.83284ZM116.578 10.9278C117.014 10.9278 117.365 10.8007 117.633 10.5466C117.901 10.2924 118.035 10.052 118.035 9.82546V6.26967C118.035 5.55133 117.84 5.04573 117.449 4.75287C117.064 4.45448 116.687 4.30528 116.319 4.30528C115.615 4.30528 115.068 4.61472 114.677 5.2336C114.287 5.84695 114.091 6.60397 114.091 7.50466C114.091 8.3943 114.298 9.18724 114.711 9.88348C115.13 10.5797 115.752 10.9278 116.578 10.9278Z" fill="white"/>
<path d="M122.189 0.964999C122.189 0.727394 122.272 0.522944 122.44 0.351647C122.607 0.18035 122.814 0.0947021 123.06 0.0947021C123.3 0.0947021 123.503 0.18035 123.671 0.351647C123.844 0.517418 123.93 0.721869 123.93 0.964999C123.93 1.2026 123.844 1.40706 123.671 1.57835C123.503 1.74412 123.3 1.82701 123.06 1.82701C122.814 1.82701 122.607 1.74412 122.44 1.57835C122.272 1.40706 122.189 1.2026 122.189 0.964999ZM121.117 11.4334C121.714 11.3782 122.091 11.2787 122.247 11.135C122.404 10.9859 122.482 10.588 122.482 9.94149V5.98786C122.482 5.62869 122.457 5.38003 122.406 5.24189C122.323 5.01534 122.147 4.90206 121.879 4.90206C121.817 4.90206 121.756 4.90758 121.695 4.91864C121.639 4.92969 121.471 4.97389 121.192 5.05125V4.79431L121.552 4.67827C122.529 4.3633 123.21 4.1257 123.596 3.96545C123.752 3.89914 123.852 3.86599 123.897 3.86599C123.908 3.90467 123.914 3.94611 123.914 3.99032V9.94149C123.914 10.5714 123.989 10.9665 124.14 11.1268C124.296 11.287 124.645 11.3892 125.187 11.4334V11.6655H121.117V11.4334Z" fill="white"/>
<path d="M125.99 7.81963C125.99 6.72001 126.342 5.7917 127.046 5.03468C127.755 4.27213 128.665 3.89086 129.775 3.89086C130.881 3.89086 131.796 4.25003 132.522 4.96837C133.248 5.68671 133.611 6.64265 133.611 7.8362C133.611 8.93582 133.259 9.89176 132.556 10.704C131.852 11.5163 130.942 11.9225 129.826 11.9225C128.754 11.9225 127.847 11.5329 127.104 10.7538C126.362 9.97465 125.99 8.9966 125.99 7.81963ZM129.541 4.38817C129.1 4.38817 128.718 4.53184 128.394 4.81917C127.836 5.32201 127.556 6.18955 127.556 7.42178C127.556 8.40535 127.78 9.32262 128.226 10.1736C128.678 11.0245 129.304 11.45 130.102 11.45C130.727 11.45 131.207 11.1654 131.542 10.5963C131.883 10.0271 132.053 9.28117 132.053 8.35838C132.053 7.40244 131.838 6.50175 131.408 5.65632C130.979 4.81088 130.356 4.38817 129.541 4.38817Z" fill="white"/>
</svg>
