<svg width="87" height="10" viewBox="0 0 87 10" fill="none" xmlns="http://www.w3.org/2000/svg">
<path d="M22.8888 9.66396H25.3288V6.94283H27.5516C30.0171 6.94283 31.5482 5.6659 31.5482 3.61282V3.58528C31.5482 1.58217 30.0681 0.337879 27.6872 0.337879H22.8888V9.66396ZM27.4965 5.07435H25.3288V2.35629H27.4832C28.5155 2.35629 29.1082 2.8489 29.1082 3.70869V3.73521C29.1082 4.54808 28.4758 5.07435 27.4965 5.07435ZM0.240234 9.66396H2.68026V6.94283H4.903C7.36853 6.94283 8.89966 5.6659 8.89966 3.61282V3.58528C8.89966 1.58217 7.42055 0.337879 5.03867 0.337879H0.240234V9.66396ZM4.84894 5.07435H2.68026V2.35629H4.83466C5.868 2.35629 6.45964 2.8489 6.45964 3.70869V3.73521C6.45964 4.54808 5.82719 5.07435 4.84894 5.07435ZM15.7769 0.147461C12.9482 0.147461 10.7326 2.27908 10.7326 5.00021V5.02774C10.7326 7.73357 12.936 9.85295 15.7504 9.85295C18.5791 9.85295 20.7957 7.72235 20.7957 5.00021V4.97369C20.7957 2.26684 18.5903 0.147461 15.7769 0.147461ZM15.7769 7.67238C14.3549 7.67238 13.241 6.49846 13.241 5.00021V4.97369C13.241 3.46626 14.3192 2.32905 15.7504 2.32905C17.1795 2.32905 18.2996 3.50297 18.2996 5.00021V5.02774C18.2996 6.53517 17.2142 7.67238 15.7769 7.67238ZM33.6452 0.337777V5.58523C33.6452 8.36857 35.1355 9.8403 37.956 9.8403C40.8102 9.8403 42.3199 8.34511 42.3199 5.51689V0.337777H39.8381V5.59951C39.8381 6.92743 39.1801 7.65769 37.9826 7.65769C36.8044 7.65769 36.127 6.88358 36.127 5.53117V0.337777H33.6452ZM44.8041 9.66396H51.8579V7.54968H47.2441V0.337879H44.8041V9.66396ZM57.8993 0.147461C55.0697 0.147461 52.8541 2.27908 52.8541 5.00021V5.02774C52.8541 7.73357 55.0584 9.85295 57.8718 9.85295C60.7015 9.85295 62.9171 7.72235 62.9171 5.00021V4.97369C62.9171 2.26684 60.7127 0.147461 57.8993 0.147461ZM57.8993 7.67238C56.4763 7.67238 55.3624 6.49846 55.3624 5.00021V4.97369C55.3624 3.46626 56.4417 2.32905 57.8718 2.32905C59.302 2.32905 60.422 3.50297 60.422 5.00021V5.02774C60.422 6.53517 59.3377 7.67238 57.8993 7.67238ZM64.8114 0.337777V5.58523C64.8114 8.36857 66.3017 9.8403 69.1212 9.8403C71.9754 9.8403 73.4851 8.34511 73.4851 5.51689V0.337777H71.0043V5.59951C71.0043 6.92743 70.3443 7.65769 69.1477 7.65769C67.9685 7.65769 67.2922 6.88358 67.2922 5.53117V0.337777H64.8114ZM75.371 7.07236C75.7556 9.52423 78.5577 9.78941 79.7523 9.78941C81.0865 9.78941 84.1926 9.49261 84.1926 6.74191C84.1926 5.09475 82.7023 4.49402 81.2456 4.12481C80.9253 4.04526 80.6061 3.97387 80.3011 3.90859C79.0974 3.6475 78.1497 3.44147 78.1497 2.78975C78.1497 2.12273 78.8801 1.88611 79.5625 1.88611C79.9563 1.88611 80.6775 1.94934 81.0763 2.36852C81.2405 2.54191 81.3303 2.75507 81.3415 3.00189L83.8071 2.61228C83.4704 0.825397 81.4374 0.188971 79.7818 0.188971C77.7162 0.188971 75.6332 1.04264 75.6332 2.94783C75.6332 4.57664 77.0643 5.16818 78.6098 5.56493C78.8699 5.63021 79.131 5.69038 79.382 5.7475C80.6244 6.03001 81.6771 6.26969 81.6771 7.03157C81.6771 7.81384 80.7662 8.09227 79.9124 8.09227C78.6067 8.09227 77.9498 7.63535 77.8518 6.65318L75.371 7.07236ZM84.3392 1.23081V1.22571C84.3392 0.739214 84.735 0.331249 85.2369 0.331249C85.7388 0.331249 86.1305 0.734115 86.1305 1.22163V1.22571C86.1305 1.71323 85.7347 2.1212 85.2328 2.1212C84.7309 2.1212 84.3392 1.71731 84.3392 1.23081ZM86.0264 1.22571V1.22163C86.0264 0.78409 85.6878 0.429161 85.2369 0.429161C84.785 0.429161 84.4443 0.78817 84.4443 1.22571V1.23081C84.4443 1.66835 84.7819 2.02226 85.2328 2.02226C85.6857 2.02226 86.0264 1.66326 86.0264 1.22571ZM84.8666 0.723916H85.2889C85.4185 0.723916 85.5174 0.761652 85.5837 0.827947C85.6357 0.879962 85.6623 0.952376 85.6623 1.03601V1.04009C85.6623 1.1941 85.5786 1.28997 85.4572 1.33484L85.6898 1.67549H85.445L85.242 1.36952H85.0767V1.67549H84.8666V0.723916ZM85.2869 1.189C85.393 1.189 85.4501 1.13188 85.4501 1.05335V1.04825C85.4501 0.957476 85.3858 0.90954 85.2818 0.90954H85.0767V1.189H85.2869Z" fill="white"/>
</svg>
