<svg width="56" height="20" viewBox="0 0 56 20" fill="none" xmlns="http://www.w3.org/2000/svg">
<path d="M36.3041 0.559915V3.99188H25.1858C23.3685 3.99188 22.5522 5.06328 23.0057 6.85318C23.2253 7.71793 23.7775 8.15031 24.6845 8.14713C26.9489 8.14713 29.2133 8.14713 31.4761 8.14713C35.1488 8.14713 37.4116 10.7 36.9772 14.3466C36.5523 17.9153 34.8353 19.4334 31.2263 19.4334H20.0873V16.0125H31.6559C32.7348 16.0125 33.5289 14.9825 33.532 13.5772C33.532 12.4979 32.6823 11.5902 31.6718 11.5807C29.0144 11.56 26.3363 11.7396 23.7075 11.4615C20.1907 11.0831 18.3592 6.80708 20.0475 3.36558C20.571 2.26875 21.3205 1.46599 22.3215 0.98911C22.9566 0.698063 23.6484 0.551473 24.3472 0.559915H36.3041Z" fill="white"/>
<path d="M11.9942 0.560547C13.8114 0.824422 15.2977 1.6383 16.3845 3.14684C18.5153 6.10352 17.4507 11.4414 13.0094 12.1329L18.711 19.4308H14.0215L5.92027 9.06337H6.48677C8.29128 9.04748 10.1038 9.12378 11.8971 8.98548C13.1702 8.88693 14.0835 7.58027 13.9658 6.38011C13.9183 5.73072 13.6259 5.12351 13.1478 4.68098C12.6697 4.23846 12.0413 3.99356 11.3895 3.9957C8.98667 3.9957 6.58383 3.9957 4.15395 3.9957V19.4403H0.680176V0.560547H11.9942Z" fill="white"/>
<path d="M49.3175 0.559841C50.1899 0.551943 51.0552 0.716724 51.8635 1.04467C52.9168 1.47607 53.8165 2.21306 54.4462 3.16044C55.7526 5.10136 55.907 7.1758 54.8265 9.24706C53.746 11.3183 51.9574 12.3897 49.6182 12.4978C48.6475 12.5423 47.6737 12.5058 46.6839 12.5058L43.993 9.06267H49.4496C49.7798 9.06267 50.1519 9.04408 50.4836 8.92861C50.8153 8.81314 51.1196 8.63034 51.3771 8.39171C51.6347 8.15309 51.8401 7.86379 51.9803 7.54203C52.1205 7.22027 52.1926 6.873 52.1919 6.52208C52.1912 6.17115 52.1179 5.82416 51.9764 5.50292C51.835 5.18169 51.6286 4.89317 51.3701 4.65551C51.1116 4.41786 50.8067 4.2362 50.4746 4.12198C50.1424 4.00776 49.7902 3.96344 49.44 3.99181C47.0451 3.99181 44.6487 3.99181 42.2347 3.99181V19.4269H38.7466V0.559841H49.3175Z" fill="white"/>
</svg>
