<svg width="490" height="490" viewBox="0 0 490 490" fill="none" xmlns="http://www.w3.org/2000/svg">
<path fill-rule="evenodd" clip-rule="evenodd" d="M400 20C400 8.95431 391.046 0 380 0H100C88.9543 0 80 8.9543 80 20V70C80 81.0457 71.0457 90 60 90H20C8.95431 90 0 98.9543 0 110V380C0 391.046 8.95431 400 20 400H60C71.0457 400 80 408.954 80 420V470C80 481.046 88.9543 490 100 490H380C391.046 490 400 481.046 400 470V420C400 408.954 408.954 400 420 400H470C481.046 400 490 391.046 490 380V110C490 98.9543 481.046 90 470 90H420C408.954 90 400 81.0457 400 70V20ZM390 110C390 98.9543 381.046 90 370 90H120C108.954 90 100 98.9543 100 110V380C100 391.046 108.954 400 120 400H370C381.046 400 390 391.046 390 380V110Z" fill="url(#paint0_linear_826_62584)"/>
<defs>
<linearGradient id="paint0_linear_826_62584" x1="0" y1="490" x2="591.031" y2="227.32" gradientUnits="userSpaceOnUse">
<stop stop-color="#ECE346"/>
<stop offset="0.5" stop-color="#D757A4"/>
<stop offset="1" stop-color="#8957FE"/>
</linearGradient>
</defs>
</svg>
